<?xml version="1.0" encoding="utf-8"?>
<!-- Generator: Adobe Illustrator 24.0.1, SVG Export Plug-In . SVG Version: 6.00 Build 0)  -->
<svg version="1.1" id="Layer_1" xmlns="http://www.w3.org/2000/svg" xmlns:xlink="http://www.w3.org/1999/xlink" x="0px" y="0px"
	 viewBox="0 0 141.73 141.73" style="enable-background:new 0 0 141.73 141.73;" xml:space="preserve">
<style type="text/css">
	.st0{clip-path:url(#SVGID_2_);}
</style>
<g>
	<defs>
		<rect id="SVGID_1_" x="9.32" y="11.4" width="132.41" height="122.65"/>
	</defs>
	<clipPath id="SVGID_2_">
		<use xlink:href="#SVGID_1_"  style="overflow:visible;"/>
	</clipPath>
	<path class="st0" d="M129.53,81.16c-0.81-0.89-2.08-1.38-3.26-1.41c-0.04,0-0.08,0.01-0.12,0.03c-0.15-0.23-0.31-0.44-0.46-0.64
		c-0.48-0.65-0.96-1.29-1.44-1.91c-0.21-0.27-0.41-0.55-0.59-0.83c-0.2-0.28-0.38-0.57-0.54-0.87c-0.29-0.55-0.52-1.1-0.92-1.57
		c-0.1-0.12-0.29-0.13-0.43-0.07c-0.29-0.2-0.67-0.2-1-0.01c-0.21,0.11-0.27,0.32-0.16,0.51c0.51,0.95,0.88,1.97,0.99,3.04
		c-0.08,0.41-0.14,0.82-0.2,1.22c-0.06,0.41-0.17,0.81-0.31,1.2c-0.11,0.31-0.25,0.61-0.4,0.9c-0.08,0.14-0.16,0.28-0.25,0.42
		c-0.09,0.14-0.2,0.27-0.3,0.4c-0.25,0.31-0.59,0.57-0.88,0.85c-0.02,0-0.04,0-0.05,0c-0.43,0.01-0.85,0.19-1.24,0.4
		c-0.2,0.11-0.38,0.23-0.56,0.35c-0.18,0.12-0.36,0.23-0.52,0.33c-0.74,0.44-1.44,0.89-1.79,1.58c-0.06,0.12-0.01,0.27,0.17,0.32
		c1.04,0.26,2.03,0.12,2.78-0.34c0.38-0.23,0.71-0.53,0.98-0.88c0.13-0.18,0.25-0.37,0.35-0.57c0.1-0.2,0.16-0.42,0.21-0.64
		c0.36-0.24,0.66-0.6,0.91-0.92c0.22-0.28,0.43-0.57,0.59-0.88c0.16-0.31,0.3-0.64,0.43-0.96c0.04-0.1,0.08-0.2,0.12-0.3
		c-0.03,0.48-0.06,0.97-0.07,1.46c-0.03,0.62-0.06,1.25-0.05,1.88c0.01,0.64-0.01,1.26,0,1.9c-0.16,0.31-0.35,0.6-0.55,0.88
		c-0.08,0.11-0.16,0.22-0.25,0.32c-0.1,0.1-0.2,0.19-0.3,0.28c-0.21,0.18-0.43,0.34-0.67,0.49c-0.46,0.3-0.95,0.55-1.41,0.83
		c-0.01-0.04-0.03-0.07-0.07-0.1c-0.69-0.47-1.69-0.25-2.41-0.1c-0.84,0.18-1.57,0.54-2.16,1c-0.09,0.07-0.12,0.22-0.01,0.31
		c0.61,0.51,1.54,0.84,2.3,0.66l-0.04,0.08c-0.22,0.4-0.35,0.84-0.42,1.3c-0.04,0.23-0.18,0.85,0.06,1.08
		c0.57,0.55,1.59-0.44,1.91-0.8c0.67-0.71,0.84-1.74,0.86-2.68c0.06,0.01,0.12,0,0.19-0.03c0.14-0.07,0.28-0.14,0.41-0.22
		c0.13-0.08,0.26-0.16,0.39-0.25c0.25-0.17,0.5-0.36,0.73-0.56c0.47-0.4,0.93-0.83,1.33-1.3c0.05-0.06,0.1-0.12,0.14-0.18
		c0.03,0.4,0.02,0.79,0.04,1.19s0.03,0.8,0.06,1.2c-0.07,0.34-0.13,0.68-0.22,1.01c-0.1,0.42-0.2,0.84-0.29,1.26
		c-0.1,0.42-0.16,0.85-0.27,1.27c-0.21,0.6-0.33,1.22-0.55,1.82c-0.08,0.22-0.18,0.43-0.3,0.63c-0.12,0.2-0.24,0.39-0.38,0.58
		c-0.02,0.01-0.04,0.02-0.07,0.04c-0.54,0.41-0.84,1.13-1.3,1.62c-0.52,0.58-1.08,1.11-1.71,1.56c-1.03,0.72-2.13,1.27-3,2.11
		l-0.02,0c-0.06-0.01-0.1,0.04-0.1,0.09c-0.55-0.7-1.34-1.28-2.1-1.77c-0.58-0.37-1.33-0.66-1.86-0.33
		c-0.22,0.14-0.28,0.31-0.23,0.51c0.05,0.19,0.2,0.4,0.42,0.61c0.43,0.42,1.12,0.84,1.68,1.1c-0.45,0.06-0.89,0.13-1.31,0.22
		c-0.29,0.07-0.78,0.17-1.19,0.35c-0.42,0.17-0.79,0.4-0.81,0.76c-0.05,0.71,1.56,0.74,1.97,0.7c0.52-0.04,0.99-0.24,1.44-0.48
		c-0.18,0.22-0.43,0.58-0.61,0.91c-0.19,0.33-0.28,0.65-0.1,0.84c0.28,0.3,0.57,0.26,0.84,0.1c0.13-0.08,0.26-0.19,0.37-0.3
		c0.11-0.12,0.21-0.24,0.29-0.34c0.28-0.33,0.51-0.7,0.7-1.09c0.09-0.2,0.17-0.4,0.24-0.6c0.06-0.21,0.11-0.42,0.14-0.64
		c0.07-0.06,0.15-0.11,0.22-0.17c0.03,0,0.06,0,0.09-0.01c0.59-0.33,1.21-0.65,1.8-1.01c0.58-0.36,1.16-0.75,1.73-1.16
		c0.17-0.12,0.34-0.25,0.49-0.39c-0.25,0.43-0.52,0.85-0.73,1.3c-0.21,0.43-0.37,0.88-0.52,1.33c-0.16,0.45-0.28,0.91-0.38,1.39
		c-0.07,0.33-0.14,0.69-0.2,1.05c-0.07,0.35-0.13,0.71-0.16,1.07c-0.32,0.13-0.63,0.32-0.92,0.53c-0.29,0.2-0.56,0.44-0.84,0.63
		c-0.66,0.47-1.29,1.16-1.62,1.9c-0.05,0.1,0.09,0.25,0.19,0.16c0.57-0.48,0.93-1.14,1.51-1.61c0.16-0.13,0.33-0.26,0.51-0.39
		c-0.38,0.4-0.71,0.85-1,1.33c-0.14,0.24-0.28,0.48-0.4,0.73c-0.12,0.25-0.25,0.48-0.35,0.72c-0.01,0.02,0.02,0.04,0.04,0.02
		c0.45-0.6,0.95-1.21,1.41-1.8c0.21-0.27,0.43-0.53,0.66-0.77c0.22-0.25,0.47-0.47,0.74-0.67c-0.63,0.86-1.05,1.82-1.17,2.9
		c-0.03,0.26-0.05,0.53-0.03,0.79c0.01,0.26,0.05,0.52,0.15,0.76c0.13,0.35,0.44,0.85,0.84,0.91c0.27,0.04,0.49-0.03,0.68-0.17
		c0.18-0.15,0.33-0.38,0.44-0.63c0.23-0.5,0.32-1.12,0.36-1.48c0.03-0.26,0.03-0.54,0.02-0.82c-0.02-0.29-0.06-0.58-0.13-0.86
		c-0.12-0.57-0.31-1.12-0.56-1.61c0.02-0.07,0.03-0.13,0.05-0.2c0.1-0.07,0.11-0.19,0.06-0.28c0.13-0.59,0.17-1.22,0.28-1.82
		c0.09-0.49,0.22-0.96,0.37-1.42c0.15-0.46,0.31-0.93,0.52-1.37c0.17-0.37,0.36-0.71,0.58-1.04c0.2-0.34,0.42-0.67,0.65-0.99
		c0.46-0.64,0.99-1.24,1.48-1.87c-0.03,0.2-0.05,0.41-0.07,0.62c-0.12,1.02-0.19,2.07-0.07,3.14c0.09,1.04,0.36,2.08,0.9,3.03
		c-0.02,0.01-0.05,0.03-0.07,0.06c-0.1,0.13-0.2,0.27-0.3,0.41c-0.1,0.14-0.21,0.27-0.32,0.4c-0.22,0.27-0.43,0.54-0.64,0.82
		c-0.21,0.28-0.41,0.56-0.6,0.85c-0.18,0.29-0.38,0.57-0.54,0.86c-0.33,0.58-0.7,2.01,0.3,2.07c0.78,0.04,1.45-0.7,1.9-1.42
		c0.06,1.2,0.53,2.49,1.51,2.83c0.77,0.26,1.3-0.73,1.34-1.39c0.04-0.58-0.16-1.14-0.3-1.66c-0.06-0.22-0.11-0.43-0.17-0.65
		l0.02,0.01c0.35,0.18,0.73,0.24,1.08,0.14c0.17-0.05,0.34-0.13,0.48-0.25c0.14-0.13,0.26-0.3,0.35-0.51
		c0.38-0.9-0.44-1.78-1.02-2.18c-0.67-0.46-1.79-0.91-2.65-0.76c-0.11-0.47-0.22-0.94-0.31-1.41c-0.04-0.23-0.08-0.47-0.12-0.7
		c-0.04-0.24-0.08-0.47-0.1-0.71c-0.14-1.19,0.01-2.33,0.21-3.47c0.1-0.51,0.2-1.02,0.31-1.52c0.09-0.51,0.18-1.02,0.29-1.52
		c0.05-0.25,0.11-0.5,0.16-0.75l0.08-0.37l0.07-0.38c0.09-0.5,0.19-1,0.3-1.5c0.07,0.45,0.16,0.89,0.27,1.34
		c0.08,0.33,0.17,0.67,0.26,1c0.09,0.33,0.18,0.66,0.29,0.99c0.09,0.3,0.19,0.71,0.38,1.01c0,0.06,0.02,0.11,0.06,0.15l-0.02,0.06
		c-0.06,0.06-0.1,0.15-0.08,0.23c0.01,0.05,0.02,0.09,0.04,0.13c0,0.16,0,0.33,0.01,0.49c-0.01,0.5,0,1.01,0.04,1.52
		c0.08,0.9,0.3,1.85,0.75,2.62c0.24,0.4,0.81,0.94,1.2,0.34c0.23-0.34,0.38-0.73,0.47-1.12c0.09-0.39,0.11-0.79,0.05-1.18
		c0.24,0.06,0.48,0.1,0.69,0.21c0.33,0.17,0.7,0.18,1.02-0.09c0.36-0.3,0.27-0.77,0.05-1.19c-0.22-0.43-0.58-0.81-0.76-1
		c-0.71-0.7-1.8-1.12-2.8-1.3c-0.1-0.4-0.31-0.8-0.43-1.18c-0.17-0.59-0.35-1.22-0.49-1.82c-0.13-0.58-0.22-1.15-0.29-1.72
		c-0.09-0.6-0.04-1.29-0.25-1.85c0.15-0.81,0.2-1.65,0.21-2.47c0.03-1.15-0.14-2.3-0.13-3.43c0-0.25,0-0.5,0.01-0.75
		c0.01-0.25,0.03-0.5,0.06-0.76c0.05-0.51,0.14-1.02,0.19-1.53c0.11,0.27,0.19,0.54,0.29,0.8c0.26,0.71,0.56,1.47,0.9,2.23
		c0.31,0.75,0.69,1.49,1.16,2.14c0.02,0.02,0.03,0.04,0.05,0.05c-0.11,0.21-0.21,0.42-0.3,0.64c-0.1,0.22-0.19,0.44-0.26,0.67
		c-0.15,0.45-0.25,0.92-0.3,1.38c-0.01,0.31-0.22,2.07,0.54,1.89c0.46-0.12,0.8-0.59,1.01-1.11c0.09,0.74,0.27,1.51,0.6,2.21
		c0.32,0.69,0.79,1.31,1.4,1.69c0.13,0.08,0.31,0.02,0.36-0.14c0.25-0.85,0.3-1.69,0.2-2.53c-0.04-0.37-0.16-0.71-0.3-1.02
		c-0.14-0.31-0.31-0.6-0.49-0.9c0.45,0.23,0.92,0.4,1.39,0.5c0.1,0.02,0.24-0.03,0.29-0.14c0.2-0.52,0.08-1.02-0.16-1.47
		c-0.25-0.45-0.64-0.86-0.94-1.19c-0.72-0.79-1.78-1.37-2.85-1.25c-0.24-0.55-0.49-1.07-0.73-1.6c-0.33-0.71-0.6-1.42-0.84-2.13
		c-0.13-0.43-0.28-0.86-0.4-1.29c-0.13-0.43-0.24-0.86-0.36-1.28c0.18,0.23,0.36,0.45,0.54,0.67c0.45,0.55,0.9,1.12,1.33,1.7
		c0.32,0.44,0.63,1.07,1.11,1.4c0.09,0.79,0.74,1.52,1.32,2.01c0.45,0.37,0.99,0.6,1.54,0.77c0.34,0.1,1.02,0.29,1.35-0.03
		c0.19-0.18,0.26-0.39,0.25-0.6c-0.01-0.21-0.11-0.44-0.23-0.66C130.17,81.81,129.77,81.41,129.53,81.16"/>
	<path class="st0" d="M109.29,113.44c-0.03-0.03-0.07-0.05-0.11-0.05c0.03-0.27,0.04-0.55,0.06-0.79c0.04-0.4,0.07-0.79,0.1-1.18
		c0.02-0.4,0.04-0.8,0.06-1.19c0.04-0.7,0.1-1.37,0.26-2.02c0.13-0.61,0.31-1.18,0.31-1.8c0-0.15-0.14-0.29-0.28-0.34
		c-0.09-0.34-0.38-0.58-0.75-0.67c-0.23-0.05-0.41,0.08-0.45,0.28c-0.05,0.27-0.12,0.53-0.2,0.79c-0.04,0.13-0.08,0.26-0.12,0.39
		c-0.05,0.12-0.1,0.25-0.15,0.37c-0.21,0.49-0.47,0.96-0.76,1.41c-0.32,0.27-0.64,0.53-0.96,0.79c-0.32,0.26-0.65,0.51-1.01,0.72
		c-0.14,0.08-0.29,0.16-0.43,0.23c-0.15,0.07-0.3,0.13-0.46,0.18c-0.31,0.11-0.63,0.2-0.96,0.26c-0.39,0.08-0.81,0.07-1.21,0.09
		c-0.01-0.01-0.02-0.03-0.04-0.04c-0.68-0.54-1.75-0.59-2.49-0.7c-0.42-0.07-0.83-0.11-1.24-0.13c-0.41-0.01-0.8,0.03-1.17,0.18
		c-0.12,0.05-0.18,0.21-0.08,0.36c0.62,0.87,1.46,1.38,2.35,1.54c0.22,0.04,0.45,0.06,0.67,0.05c0.22-0.01,0.44-0.04,0.65-0.1
		c0.43-0.11,0.84-0.29,1.22-0.56c0.22,0.03,0.45,0.03,0.67,0c0.22-0.03,0.43-0.07,0.62-0.11c0.69-0.14,1.36-0.41,1.99-0.73
		c0.09-0.05,0.18-0.11,0.28-0.16c-0.33,0.36-0.69,0.69-1.01,1.05c-0.21,0.23-0.42,0.46-0.63,0.7c-0.1,0.12-0.21,0.24-0.31,0.36
		c-0.1,0.12-0.21,0.23-0.32,0.35c-0.42,0.47-0.83,0.95-1.23,1.46c-0.32,0.14-0.66,0.22-1,0.3c-0.54,0.13-1.09,0.12-1.63,0.05
		c-0.27-0.03-0.54-0.08-0.82-0.13c-0.27-0.05-0.54-0.11-0.81-0.15c0.02-0.03,0.02-0.07,0.01-0.12c-0.21-0.79-1.14-1.3-1.78-1.63
		c-0.38-0.19-0.76-0.34-1.15-0.43c-0.39-0.1-0.78-0.17-1.16-0.19c-0.11-0.01-0.23,0.08-0.21,0.23c0.14,0.8,0.63,1.64,1.34,1.99
		l-0.08,0.03c-0.43,0.17-0.8,0.45-1.15,0.75c-0.18,0.14-0.7,0.52-0.67,0.84c0.04,0.39,0.42,0.57,0.85,0.64
		c0.43,0.07,0.91,0.04,1.15-0.01c0.48-0.08,0.92-0.28,1.32-0.54c0.2-0.13,0.4-0.28,0.57-0.44c0.18-0.17,0.34-0.35,0.49-0.53
		c0.04,0.04,0.09,0.08,0.16,0.09c0.6,0.14,1.22,0.21,1.84,0.22c0.62,0,1.23-0.06,1.84-0.15c0.08-0.01,0.15-0.02,0.23-0.04
		c-0.25,0.31-0.5,0.62-0.74,0.94c-0.12,0.16-0.24,0.32-0.36,0.48c-0.12,0.15-0.24,0.31-0.37,0.47l-0.83,0.63
		c-0.68,0.54-1.38,1.04-2.06,1.58c-0.27,0.17-0.52,0.36-0.78,0.54c-0.26,0.17-0.53,0.35-0.81,0.5c-0.42,0.22-0.85,0.38-1.29,0.51
		c-0.02-0.01-0.05-0.01-0.07-0.01c-0.67-0.03-1.39,0.28-2.04,0.4c-0.76,0.15-1.55,0.14-2.32,0.09c-1.23-0.05-2.47-0.42-3.65-0.28
		l-0.01-0.02c-0.04-0.04-0.11-0.03-0.14,0.01c0.02-0.9-0.21-1.85-0.48-2.71c-0.1-0.33-0.25-0.67-0.45-0.93
		c-0.2-0.26-0.45-0.46-0.77-0.51c-1.03-0.17-0.51,1.79,0.01,2.89c-0.38-0.24-0.76-0.46-1.15-0.65c-0.26-0.12-0.71-0.37-1.14-0.51
		c-0.44-0.14-0.86-0.18-1.1,0.09c-0.49,0.53,0.72,1.56,1.06,1.78c0.42,0.29,0.91,0.46,1.42,0.57c-0.55,0.1-1.71,0.36-1.67,0.88
		c0.06,0.82,0.99,0.61,1.5,0.54c0.43-0.05,0.84-0.2,1.23-0.4c0.39-0.2,0.75-0.44,1.09-0.71c0.09,0.01,0.19,0.02,0.28,0.02
		c0.02,0.02,0.04,0.04,0.08,0.05c0.67,0.14,1.34,0.24,2.03,0.36c0.34,0.05,0.69,0.11,1.04,0.15c0.34,0.03,0.69,0.05,1.04,0.07
		c0.21,0.01,0.41,0.01,0.62,0.02c-0.47,0.16-0.94,0.34-1.39,0.55c-0.88,0.37-1.67,0.9-2.43,1.51c-0.55,0.41-1.13,0.86-1.63,1.39
		c-0.66-0.18-1.43-0.22-2.1-0.25c-0.4-0.02-0.83,0.01-1.26,0.08c-0.42,0.06-0.84,0.17-1.2,0.35c-0.1,0.05-0.09,0.25,0.04,0.25
		c0.37,0,0.73-0.06,1.1-0.12c0.36-0.07,0.72-0.14,1.1-0.15c0.2,0,0.42,0,0.64,0.01c-0.55,0.07-1.09,0.22-1.61,0.41
		c-0.53,0.17-1.04,0.38-1.5,0.62c-0.02,0.01-0.01,0.05,0.01,0.04c0.72-0.21,1.51-0.28,2.24-0.48c0.66-0.17,1.32-0.26,2-0.2
		c-0.52,0.1-1.01,0.29-1.47,0.54c-0.23,0.13-0.45,0.27-0.67,0.43c-0.21,0.16-0.42,0.34-0.62,0.51c-0.38,0.34-0.74,0.76-0.91,1.26
		c-0.12,0.35-0.2,0.94,0.07,1.25c0.35,0.41,0.88,0.34,1.38,0.11c0.5-0.23,0.96-0.66,1.22-0.92c0.76-0.77,1.36-1.86,1.58-2.95
		c0.05-0.04,0.11-0.08,0.17-0.13c0.12,0.01,0.2-0.08,0.22-0.18c0.47-0.4,0.91-0.83,1.38-1.2c0.76-0.64,1.58-1.18,2.46-1.57
		c0.72-0.36,1.47-0.6,2.24-0.78c0.76-0.2,1.54-0.35,2.33-0.49c-0.15,0.13-0.3,0.27-0.46,0.41c-0.37,0.35-0.74,0.72-1.08,1.13
		c-0.35,0.4-0.68,0.79-0.98,1.24c-0.59,0.87-1.04,1.86-1.24,2.92c-0.03,0-0.06-0.01-0.09,0c-0.66,0.15-1.34,0.29-2.01,0.46
		c-0.68,0.15-1.35,0.32-1.97,0.57c-0.61,0.27-1.82,1.08-1.09,1.78c0.58,0.56,1.56,0.4,2.36,0.11c-0.72,0.98-1.17,2.29-0.63,3.16
		c0.43,0.69,1.45,0.24,1.91-0.23c0.4-0.41,0.61-0.95,0.83-1.45c0.09-0.21,0.19-0.41,0.28-0.62l0.01,0.02
		c0.3,0.72,1.03,1.14,1.86,0.74c0.88-0.42,0.8-1.64,0.61-2.31c-0.22-0.79-0.79-1.83-1.54-2.27c0.43-0.87,0.86-1.74,1.39-2.51
		c0.17-0.24,0.34-0.47,0.53-0.7c0.18-0.23,0.38-0.45,0.57-0.66c0.4-0.42,0.83-0.8,1.29-1.16c0.41-0.33,0.8-0.67,1.21-0.99
		c0.41-0.32,0.81-0.64,1.21-0.96c0.4-0.33,0.79-0.65,1.19-0.96c0.2-0.16,0.4-0.31,0.6-0.47c0.2-0.15,0.4-0.32,0.59-0.48
		c-0.11,0.2-0.22,0.4-0.33,0.6c-0.11,0.2-0.22,0.39-0.33,0.59c-0.32,0.6-0.59,1.22-0.85,1.87c-0.06,0.15-0.14,0.31-0.2,0.49
		c-0.07,0.17-0.13,0.35-0.16,0.53c-0.04,0.04-0.06,0.1-0.05,0.16l-0.05,0.04c-0.09,0-0.17,0.04-0.21,0.11
		c-0.02,0.04-0.04,0.08-0.06,0.13c-0.11,0.12-0.21,0.24-0.31,0.37c-0.33,0.39-0.64,0.79-0.92,1.22c-0.52,0.72-0.97,1.57-1.11,2.47
		c-0.07,0.46,0.03,1.25,0.7,1.03c0.39-0.13,0.76-0.31,1.08-0.54c0.16-0.12,0.31-0.25,0.44-0.39c0.13-0.14,0.25-0.31,0.35-0.48
		c0.15,0.2,0.3,0.39,0.39,0.6c0.15,0.35,0.42,0.58,0.84,0.58c0.93-0.03,0.92-1.6,0.86-2.12c-0.09-0.99-0.66-2.01-1.31-2.8
		c0.18-0.37,0.27-0.83,0.42-1.19c0.24-0.59,0.52-1.15,0.81-1.69c0.27-0.52,0.56-1.04,0.88-1.53c0.32-0.51,0.82-0.97,1.01-1.55
		c0.31-0.28,0.62-0.56,0.91-0.85c0.29-0.29,0.59-0.57,0.85-0.9c0.74-0.9,1.41-1.81,2.11-2.71c0.31-0.39,0.68-0.73,1.05-1.08
		c0.36-0.36,0.75-0.71,1.13-1.06c-0.1,0.27-0.2,0.54-0.29,0.81c-0.12,0.36-0.25,0.73-0.38,1.12c-0.14,0.37-0.27,0.76-0.39,1.15
		c-0.24,0.78-0.42,1.62-0.5,2.4c0,0.03,0,0.05,0.01,0.08c-0.45,0.16-0.88,0.37-1.28,0.63c-0.2,0.13-0.39,0.27-0.58,0.41
		c-0.19,0.14-0.37,0.28-0.55,0.44c-0.23,0.21-1.49,1.46-0.8,1.8c0.42,0.2,0.98,0.04,1.47-0.21c-0.21,0.31-0.39,0.65-0.56,1
		c-0.16,0.35-0.29,0.73-0.4,1.09c-0.21,0.73-0.25,1.49-0.03,2.18c0.05,0.15,0.22,0.21,0.37,0.12c0.37-0.23,0.71-0.5,1-0.79
		c0.29-0.3,0.55-0.64,0.78-1.01c0.4-0.64,0.54-1.28,0.66-1.95c0.19,0.46,0.44,0.9,0.74,1.28c0.06,0.08,0.2,0.14,0.31,0.08
		c0.96-0.54,0.9-1.84,0.88-2.74c-0.01-0.26-0.04-0.53-0.1-0.79c-0.06-0.27-0.15-0.53-0.26-0.78c-0.22-0.49-0.56-0.93-1-1.23
		c0.17-0.57,0.3-1.15,0.47-1.71c0.11-0.37,0.24-0.72,0.36-1.08c0.12-0.37,0.25-0.72,0.39-1.08c0.17-0.42,0.35-0.83,0.54-1.23
		c0.19-0.4,0.37-0.82,0.55-1.21c-0.01,0.29-0.01,0.58-0.02,0.87c0,0.73-0.06,1.42-0.11,2.15c-0.04,0.54-0.2,1.23-0.05,1.8
		c-0.45,0.66-0.45,1.6-0.31,2.37c0.1,0.58,0.37,1.11,0.68,1.59c0.19,0.3,0.59,0.88,1.04,0.85c0.51-0.04,0.74-0.45,0.83-0.94
		c0.09-0.49,0.05-1.04,0.03-1.4C110.81,115.43,110.16,114.23,109.29,113.44"/>
	<path class="st0" d="M79.47,121.94c-0.15-0.18-0.36-0.2-0.53-0.06c-0.11,0.09-0.21,0.17-0.32,0.25c-0.11,0.08-0.22,0.15-0.33,0.22
		c-0.22,0.14-0.46,0.27-0.69,0.4c-0.47,0.25-0.97,0.46-1.49,0.63c-0.83-0.04-1.66,0.04-2.49-0.08c-0.65-0.13-1.28-0.35-1.87-0.66
		c-0.35-0.19-0.67-0.44-0.99-0.7c0-0.02,0-0.04-0.01-0.06c-0.18-0.85-0.98-1.56-1.49-2.11c-0.58-0.61-1.15-1.26-1.9-1.49
		c-0.13-0.04-0.27,0.05-0.29,0.23c-0.07,1.07,0.26,1.99,0.85,2.68c0.15,0.17,0.31,0.33,0.49,0.47c0.18,0.14,0.37,0.25,0.57,0.34
		c0.4,0.19,0.84,0.3,1.3,0.33c0.3,0.32,0.71,0.57,1.07,0.75c0.62,0.32,1.31,0.53,2,0.69c0.1,0.02,0.21,0.05,0.32,0.07
		c-0.48,0.04-0.97,0.08-1.45,0.15c-1.24,0.21-2.49,0.36-3.75,0.64c-0.33-0.1-0.65-0.25-0.96-0.4c-1-0.49-1.66-1.4-2.38-2.24
		c0.03-0.02,0.06-0.04,0.08-0.08c0.33-0.75-0.06-1.73-0.35-2.39c-0.34-0.78-0.84-1.41-1.4-1.94c-0.08-0.08-0.23-0.08-0.3,0.04
		c-0.39,0.71-0.54,1.67-0.22,2.38l-0.08-0.03c-0.44-0.14-0.9-0.17-1.37-0.15c-0.23,0.01-0.87-0.04-1.05,0.23
		c-0.43,0.65,0.72,1.53,1.15,1.75c0.84,0.48,1.87,0.54,2.81,0.34c0,0.06,0.02,0.12,0.07,0.17c0.38,0.49,0.81,0.94,1.29,1.34
		c0.48,0.38,0.99,0.73,1.52,1.05c0.07,0.04,0.13,0.08,0.2,0.11c-0.39,0.08-0.78,0.16-1.17,0.26c-0.39,0.09-0.78,0.2-1.17,0.28
		l-1.03-0.04c-0.43-0.01-0.86-0.02-1.3-0.03c-0.43-0.02-0.86-0.04-1.29-0.05c-0.63-0.08-1.27-0.05-1.89-0.19
		c-0.46-0.09-0.9-0.25-1.32-0.43c-0.01-0.02-0.03-0.04-0.05-0.06c-0.51-0.42-1.25-0.65-1.83-0.98c-0.34-0.19-0.66-0.4-0.97-0.63
		c-0.31-0.24-0.6-0.5-0.88-0.76c-0.45-0.43-0.87-0.88-1.3-1.32c-0.42-0.45-0.85-0.88-1.35-1.2l0-0.02c0-0.06-0.06-0.09-0.11-0.08
		c0.58-0.68,1-1.57,1.33-2.4c0.25-0.64,0.39-1.43-0.04-1.88c-0.69-0.79-1.52,1.05-1.81,2.24c-0.15-0.43-0.3-0.84-0.48-1.24
		c-0.26-0.52-0.76-1.86-1.47-1.75c-0.71,0.1-0.42,1.67-0.3,2.05c0.07,0.25,0.18,0.48,0.3,0.71c0.12,0.23,0.28,0.43,0.45,0.62
		c-0.26-0.12-0.64-0.32-1-0.44c-0.36-0.11-0.7-0.14-0.85,0.07c-0.47,0.67,0.38,1.1,0.82,1.37c0.76,0.43,1.64,0.6,2.5,0.6
		c0.06,0.07,0.14,0.13,0.21,0.19c0,0.03,0.01,0.06,0.03,0.08c0.44,0.51,0.88,1.04,1.34,1.56c0.12,0.13,0.23,0.26,0.35,0.39
		c0.12,0.12,0.24,0.24,0.37,0.37c0.25,0.24,0.5,0.48,0.75,0.72c0.15,0.14,0.31,0.28,0.47,0.41c-0.47-0.18-0.94-0.34-1.42-0.46
		c-0.47-0.11-0.93-0.21-1.4-0.27c-0.47-0.06-0.95-0.09-1.44-0.09c-0.35,0-0.7-0.01-1.06-0.01c-0.36,0-0.72,0.02-1.08,0.06
		c-0.2-0.29-0.44-0.55-0.7-0.79c-0.26-0.25-0.52-0.49-0.77-0.72c-0.6-0.54-1.4-1.02-2.18-1.22c-0.11-0.03-0.22,0.14-0.12,0.22
		c0.29,0.23,0.6,0.43,0.93,0.59c0.33,0.17,0.65,0.35,0.94,0.58c0.16,0.13,0.32,0.27,0.49,0.42c-0.47-0.29-0.98-0.52-1.5-0.71
		c-0.27-0.09-0.52-0.18-0.78-0.26c-0.26-0.08-0.52-0.15-0.78-0.2c-0.02,0-0.04,0.03-0.02,0.04c0.34,0.15,0.68,0.33,1.02,0.52
		c0.34,0.18,0.68,0.36,1.02,0.52c0.31,0.15,0.61,0.31,0.89,0.49c0.28,0.19,0.54,0.39,0.79,0.61c-0.12-0.06-0.24-0.11-0.36-0.16
		c-0.12-0.05-0.24-0.1-0.36-0.14c-0.25-0.09-0.5-0.16-0.76-0.2c-0.51-0.1-1.05-0.12-1.59-0.08c-0.51,0.03-1.06,0.12-1.5,0.4
		c-0.31,0.2-0.75,0.6-0.73,1.01c0.02,0.54,0.46,0.82,1,0.96c0.54,0.12,1.16,0.09,1.53,0.05c0.53-0.05,1.09-0.2,1.62-0.42
		c0.54-0.23,1.04-0.53,1.47-0.87c0.07,0,0.14,0,0.21,0.01c0.09,0.08,0.21,0.07,0.29,0c0.31,0,0.61-0.02,0.92-0.03
		c0.31-0.01,0.62-0.02,0.91-0.03c0.5-0.01,0.99,0.01,1.47,0.07c0.48,0.06,0.96,0.16,1.43,0.26c0.39,0.09,0.77,0.21,1.14,0.35
		c0.37,0.13,0.72,0.32,1.08,0.47c0.72,0.32,1.41,0.7,2.11,1.1c-0.2,0.01-0.41,0.01-0.61,0.03c-0.51,0.03-1.03,0.09-1.55,0.18
		c-0.26,0.04-0.52,0.1-0.78,0.16c-0.25,0.05-0.51,0.12-0.76,0.19c-1.01,0.29-1.98,0.77-2.81,1.48c-0.02-0.02-0.04-0.04-0.07-0.06
		c-0.6-0.3-1.22-0.63-1.84-0.92c-0.32-0.14-0.63-0.29-0.94-0.43c-0.31-0.14-0.63-0.26-0.95-0.36c-0.32-0.1-0.84-0.17-1.28-0.09
		c-0.43,0.07-0.76,0.28-0.7,0.79c0.1,0.78,0.97,1.28,1.76,1.57c-1.17,0.3-2.35,1.02-2.48,2.04c-0.11,0.81,0.97,1.11,1.62,1.04
		c0.56-0.05,1.08-0.38,1.56-0.61c0.2-0.1,0.41-0.2,0.61-0.3l-0.01,0.02c-0.22,0.75,0.07,1.54,0.97,1.76
		c0.95,0.21,1.66-0.78,1.94-1.42c0.33-0.74,0.55-1.93,0.23-2.73c0.88-0.41,1.76-0.8,2.66-1.06c0.56-0.17,1.14-0.3,1.72-0.37
		c0.58-0.08,1.15-0.08,1.73-0.08c0.53-0.01,1.05-0.01,1.56,0c0.52,0,1.02,0.03,1.54,0.02c0.51,0,1.02,0,1.53,0.01
		c0.25,0,0.51,0.02,0.76,0.02c0.26,0,0.51,0,0.77,0c-0.42,0.16-0.85,0.35-1.27,0.52c-0.62,0.26-1.23,0.57-1.84,0.9
		c-0.28,0.15-0.66,0.33-0.93,0.58c-0.05,0.01-0.1,0.04-0.14,0.09l-0.07-0.01c-0.07-0.05-0.16-0.07-0.23-0.04
		c-0.04,0.02-0.08,0.04-0.13,0.06c-0.16,0.02-0.31,0.06-0.47,0.08c-0.5,0.09-0.99,0.2-1.48,0.35c-0.44,0.14-0.87,0.28-1.28,0.48
		c-0.41,0.2-0.8,0.44-1.14,0.74c-0.35,0.31-0.77,0.98-0.1,1.24c0.38,0.15,0.78,0.24,1.18,0.27c0.4,0.02,0.79-0.05,1.16-0.18
		c-0.01,0.24-0.01,0.49-0.08,0.71c-0.11,0.36-0.04,0.72,0.28,0.98c0.36,0.29,0.8,0.12,1.17-0.17c0.37-0.29,0.69-0.71,0.83-0.93
		c0.55-0.84,0.76-1.98,0.76-3c0.37-0.18,0.73-0.47,1.08-0.66c0.55-0.3,1.13-0.55,1.7-0.79c0.54-0.25,1.09-0.45,1.64-0.63
		c0.57-0.19,1.25-0.24,1.77-0.57c0.83-0.04,1.66-0.08,2.47-0.23c0.57-0.11,1.13-0.25,1.69-0.37c0.28-0.06,0.56-0.13,0.83-0.19
		c0.28-0.07,0.56-0.14,0.84-0.2c0.49-0.1,0.99-0.15,1.5-0.17c0.26-0.01,0.51-0.03,0.77-0.05l0.77-0.05
		c-0.25,0.14-0.5,0.29-0.74,0.44c-0.16,0.1-0.33,0.2-0.5,0.31c-0.17,0.1-0.34,0.2-0.51,0.3c-0.34,0.2-0.69,0.42-1.03,0.65
		c-0.34,0.23-0.68,0.47-1,0.74c-0.32,0.26-0.63,0.51-0.9,0.8c-0.02,0.02-0.03,0.04-0.04,0.06c-0.45-0.16-0.91-0.27-1.38-0.32
		c-0.24-0.03-0.47-0.04-0.71-0.05c-0.23-0.01-0.47-0.02-0.7-0.01c-0.31,0.01-2.08,0.18-1.75,0.88c0.2,0.43,0.73,0.65,1.28,0.77
		c-0.71,0.21-1.44,0.57-2.06,1.01c-0.62,0.43-1.14,0.99-1.4,1.66c-0.06,0.14,0.04,0.3,0.21,0.33c0.43,0.05,0.86,0.07,1.28,0.02
		c0.42-0.05,0.83-0.15,1.24-0.29c0.72-0.24,1.23-0.65,1.74-1.09c-0.15,0.48-0.22,0.98-0.23,1.46c0,0.1,0.07,0.23,0.19,0.26
		c1.09,0.19,1.86-0.86,2.41-1.57c0.32-0.42,0.58-0.91,0.72-1.43c0.14-0.52,0.16-1.07,0.01-1.58c0.5-0.34,0.96-0.71,1.45-1.03
		c0.64-0.43,1.29-0.8,1.95-1.18c0.4-0.22,0.8-0.43,1.2-0.62c0.4-0.19,0.81-0.36,1.2-0.57c-0.19,0.21-0.38,0.45-0.56,0.66
		c-0.46,0.53-0.95,1.05-1.45,1.58c-0.38,0.39-0.94,0.85-1.18,1.36c-0.77,0.21-1.37,0.96-1.75,1.63c-0.29,0.51-0.42,1.09-0.49,1.66
		c-0.04,0.35-0.1,1.06,0.26,1.32c0.84,0.58,1.73-0.72,2.14-1.26c0.73-0.95,1-2.31,0.82-3.47c-0.01-0.04-0.02-0.08-0.05-0.11
		c0.2-0.19,0.38-0.4,0.55-0.57l0.83-0.86c0.27-0.29,0.54-0.56,0.81-0.86c0.47-0.52,0.95-1.01,1.48-1.42
		c0.25-0.19,0.5-0.35,0.73-0.54c0.23-0.19,0.46-0.4,0.66-0.64c0.1-0.12,0.08-0.31,0-0.44C79.77,122.61,79.7,122.24,79.47,121.94"/>
	<path class="st0" d="M43.52,117.36c0.61,0.04,1.21,0.08,1.83-0.04c0.15-0.03,0.25-0.19,0.27-0.34c0.32-0.16,0.5-0.49,0.51-0.87
		c0-0.23-0.16-0.38-0.37-0.38c-0.27,0-0.55,0-0.81-0.04c-0.26-0.03-0.53-0.08-0.79-0.13c-0.52-0.11-1.04-0.26-1.55-0.45l0,0
		c-0.62-0.56-1.31-1.02-1.87-1.64c-0.42-0.51-0.77-1.08-1.03-1.68c-0.08-0.18-0.14-0.38-0.19-0.57c-0.04-0.2-0.09-0.41-0.13-0.61
		c0.01-0.01,0.02-0.03,0.03-0.05c0.4-0.77,0.23-1.82,0.19-2.57c-0.03-0.42-0.04-0.86-0.11-1.25c-0.07-0.4-0.19-0.78-0.41-1.1
		c-0.07-0.11-0.24-0.13-0.37,0c-0.73,0.78-1.07,1.7-1.04,2.59c0.01,0.45,0.11,0.89,0.29,1.3c0.19,0.4,0.46,0.76,0.79,1.07
		c0.03,0.44,0.19,0.88,0.35,1.26c0.28,0.64,0.68,1.24,1.11,1.8c0.07,0.08,0.13,0.17,0.2,0.25c-0.4-0.27-0.8-0.55-1.22-0.8
		c-0.27-0.16-0.54-0.32-0.82-0.47c-0.27-0.17-0.54-0.33-0.81-0.49c-0.27-0.16-0.55-0.31-0.83-0.47c-0.28-0.15-0.57-0.29-0.84-0.46
		c-0.19-0.29-0.35-0.61-0.49-0.92c-0.23-0.5-0.34-1.03-0.37-1.58c-0.03-0.56-0.02-1.11-0.04-1.65c0.04,0.01,0.08,0.01,0.12-0.01
		c0.74-0.37,1.05-1.37,1.25-2.06c0.06-0.2,0.1-0.41,0.13-0.61c0.04-0.21,0.06-0.41,0.08-0.61c0.03-0.4,0.01-0.8-0.04-1.17
		c-0.02-0.11-0.13-0.21-0.26-0.16c-0.76,0.3-1.48,0.94-1.69,1.7l-0.05-0.08c-0.13-0.19-0.28-0.37-0.44-0.53
		c-0.16-0.17-0.33-0.32-0.5-0.47c-0.18-0.15-0.65-0.58-0.96-0.48c-0.75,0.23-0.39,1.61-0.24,2.08c0.16,0.46,0.45,0.84,0.79,1.19
		c0.35,0.34,0.73,0.64,1.16,0.86c-0.03,0.05-0.06,0.11-0.06,0.18c-0.02,0.61,0.04,1.23,0.15,1.84c0.06,0.3,0.12,0.62,0.21,0.91
		c0.09,0.29,0.19,0.59,0.29,0.87c0.03,0.07,0.05,0.14,0.08,0.21c-0.35-0.18-0.71-0.36-1.07-0.53c-0.35-0.18-0.71-0.36-1.07-0.54
		l-0.78-0.68c-0.33-0.27-0.64-0.58-0.96-0.86c-0.32-0.29-0.65-0.57-0.98-0.85c-0.22-0.22-0.45-0.45-0.67-0.67
		c-0.22-0.22-0.45-0.45-0.65-0.69c-0.3-0.36-0.56-0.75-0.75-1.17c0-0.02,0.01-0.05,0-0.07c-0.1-0.67-0.55-1.3-0.8-1.91
		c-0.26-0.74-0.43-1.5-0.54-2.26c-0.05-0.3-0.07-0.62-0.08-0.93c-0.02-0.31-0.03-0.62-0.05-0.93c-0.04-0.61-0.13-1.2-0.28-1.78
		l0.01-0.02c0.04-0.05,0.02-0.11-0.03-0.14c0.88-0.15,1.77-0.56,2.55-0.99c0.61-0.33,1.22-0.85,1.19-1.48
		c-0.05-1.03-1.86-0.15-2.84,0.57c0.07-0.21,0.15-0.42,0.22-0.63c0.07-0.21,0.15-0.42,0.21-0.63c0.08-0.29,0.23-0.77,0.28-1.21
		c0.05-0.45,0-0.86-0.29-1.06c-0.29-0.19-0.65,0.06-0.94,0.41c-0.15,0.17-0.29,0.37-0.39,0.55c-0.1,0.18-0.18,0.33-0.22,0.42
		c-0.2,0.46-0.27,0.98-0.27,1.49c-0.21-0.52-0.72-1.58-1.19-1.46c-0.39,0.11-0.52,0.38-0.49,0.68c0.02,0.3,0.16,0.64,0.25,0.88
		c0.15,0.41,0.35,0.79,0.61,1.14c0.27,0.34,0.58,0.65,0.92,0.92c0.01,0.09,0.02,0.18,0.04,0.28c-0.02,0.02-0.03,0.05-0.03,0.08
		c0,0.34-0.01,0.69-0.01,1.03c0.01,0.34,0.02,0.68,0.04,1.03c0.02,0.34,0.04,0.69,0.06,1.04c0.03,0.35,0.05,0.7,0.11,1.04
		c0.03,0.2,0.07,0.41,0.11,0.61c-0.13-0.22-0.26-0.43-0.39-0.64c-0.14-0.21-0.26-0.42-0.4-0.63c-0.53-0.79-1.24-1.44-1.94-2.09
		c-0.51-0.46-1.09-0.93-1.69-1.33c0.08-0.7-0.05-1.45-0.16-2.1c-0.07-0.39-0.15-0.82-0.3-1.23c-0.14-0.4-0.33-0.79-0.58-1.11
		c-0.07-0.09-0.26-0.04-0.24,0.09c0.16,0.72,0.53,1.37,0.67,2.11c0.04,0.2,0.09,0.41,0.12,0.63c-0.09-0.26-0.21-0.51-0.32-0.77
		c-0.11-0.25-0.24-0.5-0.37-0.75c-0.27-0.48-0.59-0.94-0.92-1.35c-0.01-0.02-0.05,0-0.04,0.02c0.35,0.66,0.6,1.42,0.9,2.11
		c0.28,0.63,0.52,1.24,0.59,1.91c-0.21-0.49-0.49-0.93-0.83-1.33c-0.33-0.41-0.71-0.78-1.15-1.09c-0.42-0.31-0.9-0.58-1.43-0.65
		c-0.37-0.05-0.96-0.02-1.21,0.3c-0.65,0.85,0.68,1.99,1.29,2.4c0.91,0.6,2.13,0.97,3.21,1c0.05,0.05,0.1,0.09,0.15,0.14
		c0.01,0.12,0.11,0.19,0.21,0.19c0.49,0.38,1.01,0.73,1.47,1.11c0.74,0.65,1.45,1.32,2.01,2.12c0.12,0.16,0.23,0.33,0.33,0.5
		c0.11,0.17,0.22,0.33,0.32,0.5c0.2,0.34,0.38,0.69,0.54,1.05c0.32,0.73,0.63,1.45,0.93,2.19c-0.16-0.12-0.33-0.24-0.5-0.36
		c-0.86-0.58-1.73-1.16-2.72-1.57c-0.99-0.4-2-0.68-3.09-0.67c0-0.03-0.01-0.06-0.02-0.08c-0.14-0.31-0.28-0.62-0.42-0.93
		c-0.15-0.31-0.27-0.64-0.41-0.96c-0.28-0.64-0.59-1.25-0.96-1.82c-0.35-0.57-1.4-1.6-1.94-0.74c-0.21,0.33-0.23,0.74-0.16,1.15
		c0.04,0.21,0.1,0.42,0.18,0.62c0.09,0.2,0.19,0.39,0.3,0.57c-0.28-0.13-0.57-0.24-0.87-0.32c-0.29-0.08-0.58-0.14-0.87-0.15
		c-0.57-0.03-1.1,0.09-1.48,0.44c-0.3,0.28-0.3,0.65-0.15,1c0.16,0.34,0.46,0.66,0.74,0.84c0.48,0.31,1.07,0.41,1.59,0.54
		c0.22,0.06,0.43,0.11,0.65,0.17l-0.02,0.01c-0.66,0.44-0.93,1.23-0.36,1.97c0.6,0.77,1.76,0.48,2.38,0.16
		c0.73-0.36,1.66-1.13,1.94-1.96c0.46,0.13,0.92,0.27,1.37,0.41c0.46,0.14,0.92,0.29,1.35,0.48c0.55,0.23,1.05,0.51,1.54,0.83
		c0.5,0.31,0.96,0.65,1.4,1.03c0.2,0.17,0.4,0.34,0.59,0.51c0.2,0.17,0.4,0.33,0.6,0.49c0.4,0.33,0.79,0.66,1.18,0.99l0.29,0.25
		l0.3,0.24c0.2,0.16,0.39,0.33,0.59,0.49c0.39,0.33,0.77,0.66,1.15,1c-0.42-0.15-0.85-0.29-1.29-0.42
		c-0.65-0.19-1.33-0.33-2.01-0.47c-0.3-0.06-0.71-0.18-1.06-0.17c-0.05-0.03-0.11-0.04-0.16-0.02l-0.05-0.04
		c-0.02-0.08-0.08-0.16-0.16-0.18c-0.04-0.01-0.09-0.02-0.14-0.03c-0.14-0.08-0.28-0.15-0.42-0.23c-0.22-0.12-0.45-0.24-0.68-0.35
		c-0.23-0.12-0.45-0.23-0.68-0.33c-0.82-0.37-1.75-0.64-2.66-0.6c-0.24,0.01-0.53,0.07-0.74,0.21c-0.2,0.14-0.31,0.36-0.13,0.67
		c0.41,0.72,1.02,1.29,1.75,1.57c-0.16,0.18-0.32,0.37-0.51,0.5c-0.31,0.21-0.5,0.53-0.4,0.93c0.21,0.9,1.76,0.58,2.26,0.43
		c0.95-0.29,1.84-1.03,2.49-1.83c0.39,0.11,0.84,0.12,1.24,0.19c0.63,0.12,1.24,0.28,1.83,0.46c0.28,0.08,0.56,0.18,0.83,0.28
		c0.28,0.09,0.56,0.19,0.83,0.29c0.56,0.21,1.14,0.6,1.72,0.69c0.66,0.5,1.35,0.97,2.06,1.38c0.5,0.28,1.03,0.52,1.54,0.78
		c0.52,0.26,1.03,0.51,1.53,0.76c0.44,0.23,0.86,0.51,1.27,0.81l0.31,0.23l0.32,0.22l0.63,0.45c-0.29-0.05-0.57-0.09-0.85-0.12
		c-0.38-0.04-0.77-0.11-1.16-0.17c-0.4-0.06-0.8-0.11-1.21-0.15c-0.41-0.04-0.83-0.06-1.24-0.07c-0.4-0.01-0.81,0-1.21,0.04
		c-0.03,0-0.05,0.01-0.07,0.02c-0.24-0.4-0.54-0.78-0.87-1.12c-0.33-0.34-0.67-0.67-1.05-0.95c-0.13-0.09-0.56-0.38-0.98-0.56
		c-0.43-0.17-0.83-0.26-0.94,0.13c-0.13,0.47,0.15,0.97,0.49,1.41c-0.34-0.14-0.71-0.26-1.09-0.34c-0.37-0.09-0.75-0.17-1.13-0.19
		c-0.76-0.06-1.52,0.05-2.15,0.4c-0.13,0.08-0.16,0.26-0.05,0.38c0.3,0.32,0.63,0.59,0.98,0.82c0.18,0.12,0.35,0.22,0.54,0.32
		c0.19,0.1,0.39,0.18,0.59,0.25c0.71,0.27,1.37,0.27,2.05,0.25c-0.42,0.28-0.8,0.61-1.11,0.98c-0.07,0.08-0.1,0.22-0.02,0.32
		c0.34,0.44,0.85,0.56,1.37,0.56c0.52,0,1.05-0.13,1.49-0.24c1.03-0.24,2.05-0.87,2.48-1.87c0.58,0.07,1.19,0.07,1.77,0.12
		c0.77,0.06,1.5,0.2,2.26,0.32c0.45,0.08,0.89,0.18,1.32,0.29c0.22,0.06,0.43,0.11,0.64,0.17c0.21,0.05,0.43,0.1,0.65,0.15
		c-0.28,0.04-0.57,0.1-0.85,0.15c-0.69,0.12-1.4,0.21-2.12,0.31c-0.54,0.07-1.26,0.06-1.78,0.3c-0.73-0.32-1.67-0.12-2.39,0.16
		c-0.55,0.21-1.01,0.58-1.43,0.98c-0.26,0.25-0.75,0.75-0.63,1.18c0.29,0.98,1.8,0.54,2.47,0.38c1.17-0.27,2.23-1.16,2.83-2.16
		c0.02-0.04,0.03-0.08,0.03-0.12c0.27-0.03,0.54-0.07,0.79-0.1c0.39-0.05,0.79-0.09,1.18-0.14c0.39-0.05,0.78-0.1,1.17-0.16
		C42.17,117.41,42.85,117.33,43.52,117.36"/>
	<path class="st0" d="M17.02,86.86c0.04-0.01,0.07-0.04,0.1-0.07c0.22,0.16,0.45,0.3,0.65,0.44c0.67,0.45,1.35,0.87,2.01,1.29
		c0.29,0.19,0.58,0.37,0.85,0.57c0.28,0.2,0.56,0.4,0.81,0.63c0.47,0.41,0.87,0.85,1.41,1.15c0.13,0.08,0.31,0.02,0.43-0.09
		c0.34,0.09,0.7-0.05,0.95-0.34c0.15-0.18,0.14-0.39-0.02-0.53c-0.41-0.35-0.78-0.74-1.12-1.15c-0.08-0.1-0.17-0.21-0.25-0.32
		c-0.07-0.11-0.15-0.22-0.22-0.33c-0.14-0.23-0.27-0.46-0.4-0.7c-0.07-0.41-0.16-0.81-0.24-1.22c-0.07-0.41-0.12-0.82-0.12-1.23
		c0-0.66,0.07-1.3,0.3-1.94c0.13-0.38,0.35-0.74,0.53-1.1c0.02,0,0.03-0.01,0.05-0.01c0.4-0.16,0.73-0.47,1.02-0.81
		c0.28-0.34,0.56-0.71,0.79-1.01c0.27-0.33,0.53-0.67,0.73-1.02c0.21-0.35,0.34-0.7,0.4-1.09c0.02-0.13-0.09-0.26-0.27-0.24
		c-0.53,0.06-1.01,0.21-1.44,0.43c-0.21,0.11-0.41,0.24-0.59,0.38c-0.17,0.14-0.33,0.3-0.47,0.48c-0.28,0.34-0.48,0.74-0.61,1.17
		c-0.12,0.43-0.19,0.88-0.11,1.33c-0.26,0.35-0.41,0.79-0.53,1.17c-0.11,0.34-0.19,0.68-0.25,1.04c-0.05,0.35-0.06,0.7-0.07,1.05
		c0,0.11,0,0.21,0,0.32c-0.13-0.46-0.29-0.93-0.44-1.39c-0.18-0.6-0.38-1.19-0.61-1.78c-0.06-0.15-0.11-0.29-0.17-0.44
		c-0.05-0.15-0.1-0.3-0.15-0.45c-0.11-0.3-0.22-0.6-0.33-0.89c0.05-0.34,0.12-0.68,0.2-1.01c0.31-1.06,1.15-1.88,1.8-2.72
		c0.02,0.03,0.05,0.05,0.1,0.07c0.81,0.2,1.67-0.36,2.3-0.75c0.72-0.46,1.28-1.06,1.68-1.7c0.06-0.09,0.03-0.24-0.1-0.29
		c-0.75-0.27-1.74-0.26-2.38,0.18l0.01-0.08c0.07-0.46,0.03-0.91-0.06-1.37c-0.04-0.23-0.13-0.86-0.43-0.99
		c-0.73-0.31-1.34,0.97-1.51,1.42c-0.09,0.23-0.15,0.46-0.18,0.7c-0.04,0.24-0.02,0.48-0.01,0.72c0.04,0.48,0.16,0.96,0.32,1.41
		c-0.06,0.02-0.11,0.04-0.16,0.09c-0.44,0.45-0.77,0.96-1.08,1.49c-0.31,0.54-0.57,1.1-0.8,1.68c-0.02,0.07-0.05,0.14-0.07,0.21
		c-0.29-0.73-0.58-1.47-0.92-2.2l-0.08-0.51c-0.03-0.17-0.04-0.34-0.06-0.51c-0.05-0.43-0.11-0.86-0.17-1.28
		c-0.03-0.21-0.07-0.43-0.1-0.64l-0.06-0.32l-0.04-0.32c-0.01-0.63-0.12-1.26-0.12-1.9c-0.01-0.47,0.09-0.92,0.21-1.37
		c0.02-0.01,0.04-0.03,0.05-0.05c0.18-0.29,0.28-0.62,0.37-0.96c0.09-0.34,0.14-0.7,0.27-1c0.29-0.73,0.65-1.41,1.06-2.06
		c0.35-0.52,0.75-1,1.12-1.49c0.18-0.24,0.36-0.49,0.51-0.75c0.16-0.25,0.32-0.51,0.44-0.78l0.02,0c0.06-0.01,0.08-0.07,0.06-0.12
		c0.76,0.46,1.71,0.73,2.58,0.92c0.67,0.15,1.48,0.16,1.87-0.34c0.64-0.81-1.32-1.33-2.53-1.43c0.38-0.22,0.79-0.43,1.15-0.67
		c0.25-0.16,0.68-0.43,1.01-0.73c0.17-0.15,0.31-0.32,0.39-0.48c0.09-0.17,0.13-0.33,0.08-0.51c-0.1-0.33-0.53-0.38-0.98-0.31
		c-0.45,0.07-0.93,0.25-1.1,0.34c-0.45,0.22-0.84,0.56-1.17,0.95c0.18-0.53,0.49-1.67,0.05-1.88c-0.37-0.18-0.64-0.05-0.82,0.19
		c-0.18,0.24-0.29,0.59-0.39,0.83c-0.15,0.41-0.25,0.83-0.28,1.26c-0.03,0.43,0.02,0.87,0.09,1.3c-0.05,0.08-0.1,0.15-0.15,0.23
		c-0.03,0-0.06,0.02-0.08,0.04c-0.23,0.26-0.45,0.51-0.68,0.77c-0.23,0.26-0.43,0.53-0.65,0.8c-0.42,0.54-0.84,1.1-1.23,1.69
		c-0.11,0.17-0.21,0.35-0.31,0.54c0.05-0.25,0.07-0.49,0.12-0.74c0.04-0.25,0.08-0.49,0.1-0.74c0.05-0.47,0.06-0.95,0.03-1.43
		c-0.01-0.12-0.02-0.24-0.03-0.36c-0.01-0.12-0.02-0.24-0.02-0.36c-0.02-0.24-0.05-0.48-0.08-0.71c-0.05-0.34-0.1-0.69-0.17-1.05
		c-0.07-0.36-0.15-0.72-0.24-1.06c0.52-0.48,0.91-1.13,1.25-1.7c0.1-0.17,0.21-0.35,0.31-0.54c0.1-0.19,0.19-0.38,0.27-0.58
		c0.16-0.4,0.26-0.82,0.28-1.22c0.01-0.12-0.17-0.2-0.24-0.09c-0.35,0.65-0.48,1.38-0.87,2.03c-0.1,0.18-0.2,0.37-0.32,0.55
		c0.19-0.52,0.36-1.05,0.47-1.59c0.11-0.54,0.17-1.09,0.19-1.62c0-0.02-0.04-0.03-0.04-0.01c-0.17,0.73-0.47,1.46-0.7,2.18
		c-0.11,0.32-0.21,0.65-0.34,0.95c-0.13,0.31-0.28,0.6-0.47,0.88c0.16-0.5,0.24-1.02,0.24-1.55c0.02-0.52-0.03-1.05-0.15-1.57
		c-0.12-0.5-0.3-1.03-0.66-1.43c-0.25-0.28-0.71-0.65-1.12-0.57c-1.05,0.21-0.78,1.96-0.6,2.66c0.29,1.04,0.98,2.13,1.78,2.85
		c0.01,0.07,0.01,0.14,0.02,0.21c-0.07,0.1-0.04,0.21,0.04,0.28c0.11,0.61,0.29,1.21,0.38,1.8c0.04,0.24,0.07,0.49,0.09,0.73
		c0.02,0.25,0.04,0.49,0.06,0.73c0.03,0.49,0.03,0.97-0.01,1.46c-0.09,0.8-0.22,1.57-0.44,2.33c-0.11,0.38-0.23,0.76-0.36,1.13
		c-0.11,0.38-0.24,0.76-0.36,1.14c-0.05-0.2-0.09-0.4-0.15-0.6c-0.14-0.5-0.27-1-0.43-1.5c-0.17-0.5-0.37-0.99-0.61-1.46
		c-0.25-0.48-0.51-0.93-0.82-1.35c-0.31-0.42-0.67-0.82-1.09-1.17c0.02-0.02,0.03-0.04,0.04-0.08c0.09-0.32,0.19-0.65,0.29-0.98
		c0.11-0.33,0.22-0.66,0.32-0.99c0.21-0.66,0.36-1.34,0.46-2c0.11-0.66-0.02-2.13-0.99-1.83c-0.37,0.11-0.66,0.4-0.87,0.77
		c-0.21,0.36-0.36,0.8-0.42,1.22c-0.26-0.56-0.59-1.09-1-1.49c-0.41-0.4-0.89-0.65-1.41-0.64c-0.41,0.01-0.65,0.3-0.77,0.66
		c-0.11,0.36-0.09,0.8,0,1.12c0.16,0.55,0.54,1.01,0.85,1.45c0.13,0.18,0.25,0.37,0.38,0.55l-0.02,0c-0.39-0.04-0.77,0.03-1.06,0.24
		c-0.28,0.21-0.48,0.55-0.5,1.01c-0.05,0.98,1.02,1.51,1.7,1.68c0.78,0.2,1.99,0.22,2.75-0.22c0.27,0.4,0.53,0.8,0.77,1.21
		c0.25,0.41,0.5,0.82,0.71,1.25c0.27,0.53,0.47,1.08,0.62,1.63c0.15,0.55,0.3,1.12,0.39,1.69c0.08,0.52,0.16,1.03,0.24,1.54
		c0.1,0.51,0.18,1.02,0.26,1.52c0.13,1.01,0.33,2.01,0.48,3.02c-0.22-0.39-0.46-0.78-0.72-1.16c-0.19-0.29-0.39-0.56-0.6-0.84
		c-0.2-0.28-0.4-0.55-0.61-0.82c-0.19-0.25-0.42-0.6-0.71-0.82c-0.02-0.05-0.06-0.1-0.11-0.12l-0.01-0.06
		c0.04-0.08,0.04-0.17,0-0.24c-0.02-0.04-0.05-0.07-0.08-0.11c-0.05-0.15-0.12-0.3-0.17-0.45c-0.18-0.48-0.35-0.94-0.58-1.4
		c-0.19-0.41-0.42-0.81-0.69-1.19c-0.27-0.38-0.59-0.72-0.93-1.01c-0.36-0.29-1.08-0.59-1.24,0.1c-0.16,0.81-0.06,1.65,0.32,2.33
		c-0.24,0.03-0.49,0.07-0.72,0.04c-0.38-0.04-0.72,0.08-0.93,0.44c-0.23,0.41,0.03,0.81,0.38,1.13c0.35,0.32,0.82,0.56,1.06,0.67
		c0.91,0.4,2.07,0.42,3.08,0.24c0.23,0.34,0.57,0.64,0.81,0.95c0.1,0.12,0.19,0.25,0.28,0.38c0.1,0.13,0.19,0.25,0.28,0.38
		c0.19,0.26,0.36,0.52,0.53,0.78c0.33,0.49,0.61,1,0.87,1.51c0.29,0.53,0.49,1.19,0.88,1.64c0.08,0.41,0.16,0.81,0.27,1.21
		c0.12,0.4,0.25,0.79,0.39,1.18c0.1,0.27,0.2,0.54,0.31,0.8l0.16,0.4l0.18,0.39c0.24,0.52,0.47,1.04,0.67,1.57
		c0.16,0.46,0.33,0.94,0.45,1.44c0.13,0.49,0.24,1,0.35,1.5c-0.18-0.22-0.36-0.44-0.55-0.65c-0.25-0.29-0.51-0.58-0.78-0.88
		c-0.27-0.3-0.57-0.6-0.84-0.9c-0.56-0.59-1.17-1.16-1.84-1.61c-0.02-0.02-0.05-0.02-0.07-0.03c0.06-0.46,0.1-0.95,0.08-1.42
		c-0.02-0.48-0.09-0.95-0.2-1.4c-0.02-0.08-0.07-0.24-0.13-0.43c-0.06-0.2-0.14-0.42-0.24-0.63c-0.2-0.41-0.47-0.74-0.79-0.51
		c-0.39,0.27-0.53,0.83-0.56,1.39c-0.33-0.66-0.77-1.32-1.32-1.86c-0.55-0.54-1.2-0.95-1.9-1.1c-0.15-0.03-0.3,0.09-0.29,0.26
		c0.06,0.88,0.31,1.68,0.7,2.44c0.09,0.17,0.18,0.32,0.28,0.46c0.11,0.14,0.22,0.27,0.34,0.39c0.24,0.24,0.5,0.46,0.77,0.67
		c-0.5-0.06-1.01-0.05-1.48,0.02c-0.1,0.02-0.22,0.11-0.22,0.23c-0.01,1.11,1.12,1.7,1.95,2.11c0.95,0.49,2.15,0.67,3.11,0.19
		c0.41,0.43,0.84,0.83,1.24,1.25c0.56,0.55,1.06,1.12,1.53,1.7c0.14,0.18,0.28,0.35,0.41,0.53c0.14,0.18,0.28,0.35,0.41,0.53
		c0.27,0.36,0.53,0.72,0.78,1.08c-0.24-0.15-0.49-0.29-0.74-0.44c-0.31-0.18-0.62-0.36-0.92-0.55c-0.31-0.19-0.62-0.38-0.91-0.58
		c-0.45-0.3-0.97-0.78-1.53-0.93c-0.18-0.36-0.49-0.65-0.84-0.88c-0.35-0.23-0.73-0.42-1.09-0.55c-0.55-0.19-1.14-0.22-1.71-0.19
		c-0.36,0.02-1.06,0.09-1.25,0.49c-0.22,0.47,0.01,0.87,0.41,1.19c0.39,0.32,0.91,0.55,1.22,0.71
		C14.55,87.22,15.9,87.24,17.02,86.86"/>
	<path class="st0" d="M18.65,46.9c0.45,1.12,1.47,2.02,2.56,2.46c0.04,0.02,0.08,0.02,0.12,0.01c0.06,0.27,0.15,0.52,0.21,0.76
		c0.21,0.77,0.45,1.54,0.68,2.29c0.1,0.33,0.19,0.66,0.27,0.99c0.07,0.33,0.16,0.67,0.2,1c0.08,0.62,0.1,1.21,0.31,1.79
		c0.05,0.14,0.22,0.22,0.38,0.22c0.2,0.29,0.56,0.42,0.93,0.36c0.23-0.03,0.36-0.21,0.33-0.42c-0.08-0.53-0.11-1.07-0.09-1.61
		c0-0.27,0.04-0.53,0.08-0.8c0.04-0.26,0.09-0.53,0.15-0.79c0.22-0.35,0.41-0.72,0.61-1.08c0.22-0.35,0.44-0.7,0.71-1.02
		c0.21-0.25,0.44-0.48,0.69-0.7c0.24-0.22,0.53-0.4,0.81-0.57c0.35-0.21,0.75-0.34,1.12-0.49c0.02,0.01,0.03,0.02,0.05,0.03
		c0.41,0.14,0.86,0.12,1.3,0.05c0.45-0.06,0.9-0.17,1.27-0.25c0.42-0.08,0.83-0.17,1.21-0.3c0.37-0.14,0.73-0.3,1.03-0.56
		c0.1-0.09,0.1-0.26-0.05-0.36c-0.88-0.6-1.85-0.81-2.74-0.65c-0.86,0.17-1.66,0.68-2.18,1.43c-0.42,0.1-0.82,0.34-1.17,0.54
		c-0.3,0.18-0.59,0.39-0.86,0.62c-0.28,0.23-0.51,0.49-0.75,0.75c-0.07,0.08-0.14,0.16-0.21,0.24l0.29-0.67
		c0.09-0.23,0.19-0.45,0.29-0.67c0.25-0.57,0.48-1.16,0.7-1.75c0.22-0.59,0.47-1.17,0.67-1.78c0.26-0.23,0.53-0.45,0.82-0.64
		c0.47-0.3,0.99-0.47,1.53-0.59c0.27-0.06,0.54-0.11,0.81-0.16c0.27-0.05,0.54-0.09,0.81-0.14c0,0.04,0,0.08,0.03,0.11
		c0.47,0.67,1.52,0.84,2.24,0.94c0.42,0.06,0.84,0.06,1.23,0.03c0.4-0.03,0.77-0.12,1.14-0.23c0.11-0.03,0.19-0.15,0.12-0.28
		c-0.4-0.7-1.15-1.32-1.93-1.42l0.07-0.06c0.35-0.3,0.61-0.68,0.84-1.08c0.06-0.1,0.17-0.29,0.26-0.48c0.09-0.19,0.15-0.4,0.07-0.54
		c-0.17-0.35-0.59-0.4-1.02-0.32c-0.43,0.08-0.85,0.29-1.06,0.41c-0.42,0.23-0.78,0.56-1.08,0.94c-0.28,0.39-0.49,0.84-0.66,1.29
		c-0.05-0.03-0.12-0.04-0.18-0.03c-1.25,0.12-2.39,0.6-3.5,1.18c-0.07,0.04-0.14,0.07-0.2,0.11c0.27-0.74,0.52-1.5,0.74-2.27
		c0.18-0.29,0.38-0.58,0.57-0.86c0.24-0.36,0.47-0.72,0.7-1.09c0.11-0.19,0.23-0.37,0.35-0.55c0.12-0.18,0.23-0.36,0.35-0.54
		c0.2-0.25,0.38-0.51,0.56-0.77c0.18-0.26,0.36-0.52,0.58-0.75c0.32-0.35,0.68-0.64,1.05-0.91c0.02,0,0.05,0,0.07-0.01
		c0.32-0.1,0.6-0.3,0.91-0.5c0.3-0.2,0.58-0.41,0.87-0.57c0.34-0.19,0.69-0.36,1.04-0.51c0.36-0.15,0.73-0.26,1.1-0.37
		c0.6-0.17,1.21-0.29,1.8-0.43c0.61-0.13,1.19-0.28,1.73-0.54l0.02,0.01c0.05,0.03,0.11,0,0.13-0.06c0.28,0.85,0.83,1.67,1.37,2.38
		c0.42,0.55,1.02,1.07,1.64,0.93c1.03-0.19-0.12-1.85-0.98-2.71c0.44,0.09,0.88,0.18,1.3,0.23c0.58,0.04,1.99,0.31,2.26-0.36
		c0.28-0.66-1.21-1.22-1.6-1.32c-0.25-0.06-0.5-0.1-0.76-0.1c-0.26-0.01-0.52,0.01-0.76,0.06c0.23-0.16,0.61-0.38,0.89-0.63
		c0.29-0.25,0.48-0.53,0.38-0.76c-0.33-0.75-1.14-0.25-1.6-0.01c-0.76,0.42-1.36,1.09-1.81,1.83c-0.09,0.02-0.18,0.05-0.27,0.08
		c-0.03-0.01-0.05-0.02-0.09-0.02c-0.67,0.11-1.34,0.22-2.03,0.34c-0.35,0.06-0.68,0.14-1.02,0.23c-0.33,0.09-0.67,0.18-1.01,0.28
		c-0.2,0.06-0.4,0.12-0.6,0.19c0.4-0.31,0.77-0.63,1.13-0.98c0.17-0.17,0.33-0.35,0.49-0.52c0.16-0.17,0.32-0.35,0.46-0.54
		c0.3-0.37,0.57-0.77,0.82-1.19c0.18-0.3,0.37-0.59,0.56-0.9c0.19-0.31,0.36-0.63,0.51-0.96c0.35-0.02,0.7-0.1,1.04-0.19
		c0.35-0.09,0.69-0.19,1.01-0.29c0.38-0.12,0.79-0.28,1.16-0.5c0.37-0.22,0.73-0.45,1.01-0.74c0.08-0.08,0-0.26-0.13-0.22
		c-0.35,0.13-0.67,0.3-0.99,0.49c-0.31,0.19-0.63,0.38-0.98,0.51c-0.19,0.07-0.4,0.14-0.61,0.2c0.49-0.25,0.95-0.57,1.38-0.93
		c0.43-0.36,0.84-0.71,1.2-1.1c0.02-0.02-0.01-0.05-0.03-0.03c-0.31,0.22-0.64,0.41-0.97,0.6c-0.33,0.19-0.66,0.4-0.97,0.61
		c-0.28,0.19-0.57,0.36-0.88,0.5c-0.3,0.15-0.62,0.26-0.93,0.36c0.22-0.15,0.43-0.3,0.63-0.47c0.2-0.17,0.39-0.35,0.56-0.54
		c0.35-0.39,0.65-0.84,0.89-1.32c0.24-0.45,0.44-0.97,0.43-1.49c-0.01-0.37-0.13-0.95-0.49-1.15c-0.47-0.26-0.94-0.02-1.33,0.36
		c-0.38,0.4-0.68,0.95-0.83,1.29c-0.23,0.48-0.39,1.04-0.48,1.61c-0.08,0.57-0.08,1.17-0.01,1.71c-0.04,0.06-0.08,0.12-0.11,0.17
		c-0.11,0.03-0.16,0.14-0.15,0.24c-0.16,0.27-0.3,0.54-0.45,0.81c-0.15,0.27-0.3,0.54-0.44,0.8c-0.25,0.43-0.52,0.84-0.82,1.22
		c-0.15,0.19-0.31,0.38-0.47,0.56c-0.16,0.18-0.32,0.37-0.49,0.54c-0.28,0.29-0.58,0.55-0.89,0.79c-0.31,0.24-0.64,0.46-0.96,0.69
		c-0.64,0.45-1.34,0.84-2.03,1.25c0.09-0.19,0.19-0.36,0.29-0.54c0.24-0.45,0.46-0.92,0.65-1.42c0.1-0.25,0.18-0.5,0.26-0.75
		c0.08-0.25,0.16-0.5,0.23-0.75c0.27-1.01,0.36-2.09,0.18-3.17c0.03,0,0.06-0.01,0.08-0.03c0.57-0.36,1.17-0.72,1.74-1.1
		c0.14-0.1,0.29-0.2,0.43-0.3c0.14-0.09,0.29-0.19,0.43-0.29c0.28-0.2,0.55-0.41,0.8-0.63c0.25-0.22,0.58-0.64,0.74-1.05
		c0.16-0.4,0.15-0.8-0.32-1c-0.73-0.32-1.6,0.17-2.26,0.69c0.35-1.16,0.33-2.54-0.47-3.18c-0.64-0.51-1.45,0.26-1.73,0.85
		c-0.25,0.51-0.24,1.12-0.28,1.65c-0.02,0.23-0.04,0.45-0.06,0.67l-0.02-0.02c-0.53-0.57-1.36-0.73-2.01-0.07
		c-0.67,0.7-0.19,1.82,0.22,2.4c0.47,0.66,1.37,1.46,2.22,1.61c-0.11,0.97-0.23,1.92-0.46,2.83c-0.14,0.57-0.33,1.13-0.57,1.66
		c-0.12,0.26-0.25,0.52-0.39,0.77c-0.15,0.26-0.29,0.51-0.43,0.75c-0.26,0.45-0.53,0.9-0.81,1.34c-0.14,0.22-0.27,0.44-0.41,0.65
		c-0.13,0.22-0.26,0.44-0.39,0.66c-0.27,0.44-0.53,0.87-0.81,1.3c-0.27,0.43-0.52,0.88-0.8,1.31c0.08-0.44,0.15-0.9,0.2-1.36
		c0.09-0.67,0.15-1.35,0.18-2.04c0.01-0.31,0.07-0.73-0.01-1.09c0.02-0.05,0.02-0.11-0.01-0.17l0.04-0.05
		c0.08-0.04,0.14-0.1,0.16-0.18c0.01-0.05,0.01-0.09,0.01-0.14c0.06-0.15,0.12-0.3,0.17-0.45c0.18-0.47,0.34-0.95,0.47-1.45
		c0.11-0.44,0.2-0.9,0.25-1.35c0.04-0.45,0.04-0.91-0.05-1.36c-0.09-0.46-0.44-1.16-1.01-0.73c-0.33,0.25-0.61,0.54-0.84,0.87
		c-0.21,0.34-0.37,0.71-0.44,1.1c-0.2-0.14-0.42-0.26-0.57-0.43c-0.25-0.28-0.59-0.41-0.98-0.26c-0.43,0.16-0.52,0.62-0.47,1.09
		c0.06,0.47,0.26,0.96,0.38,1.2c0.43,0.91,1.3,1.67,2.18,2.19c-0.04,0.41,0.02,0.86,0,1.26c-0.03,0.63-0.12,1.24-0.18,1.87
		c-0.07,0.59-0.18,1.16-0.31,1.73c-0.15,0.57-0.42,1.21-0.41,1.81c-0.2,0.36-0.4,0.73-0.58,1.1c-0.18,0.37-0.33,0.76-0.48,1.15
		c-0.2,0.54-0.39,1.08-0.56,1.63c-0.16,0.55-0.32,1.1-0.51,1.63c-0.08,0.23-0.18,0.46-0.29,0.69c-0.1,0.23-0.2,0.46-0.31,0.69
		c-0.23,0.46-0.47,0.91-0.71,1.37c0.01-0.29,0.01-0.57,0.01-0.85c0-0.38-0.01-0.77-0.02-1.18c-0.01-0.4-0.03-0.8-0.04-1.22
		c-0.04-0.82-0.13-1.64-0.35-2.42c-0.01-0.03-0.02-0.05-0.03-0.07c0.73-0.6,1.34-1.38,1.75-2.21c0.15-0.27,0.93-1.86,0.16-1.95
		c-0.47-0.05-0.94,0.29-1.33,0.69c0.18-0.72,0.27-1.51,0.2-2.28c-0.02-0.19-0.04-0.38-0.08-0.57c-0.03-0.18-0.08-0.36-0.13-0.54
		c-0.11-0.35-0.27-0.67-0.5-0.96c-0.09-0.12-0.28-0.13-0.39,0.01c-0.14,0.17-0.27,0.34-0.38,0.53c-0.11,0.19-0.2,0.38-0.29,0.57
		c-0.17,0.39-0.3,0.79-0.4,1.21c-0.08,0.37-0.1,0.71-0.09,1.05c0.02,0.34,0.08,0.68,0.15,1.01c-0.34-0.37-0.73-0.7-1.14-0.95
		c-0.09-0.06-0.23-0.06-0.31,0.03c-0.37,0.42-0.43,0.93-0.35,1.43c0.07,0.51,0.27,1.01,0.45,1.44c0.4,1,1.19,1.91,2.24,2.17
		c0.03,0.59,0.1,1.18,0.13,1.76c0.05,0.77,0.07,1.54,0.04,2.29c-0.01,0.23-0.02,0.45-0.04,0.67c-0.02,0.22-0.02,0.45-0.04,0.67
		c-0.03,0.45-0.07,0.89-0.11,1.33c-0.09-0.27-0.18-0.54-0.28-0.82c-0.12-0.34-0.23-0.68-0.34-1.02l-0.16-0.52l-0.14-0.52
		c-0.15-0.52-0.22-1.22-0.56-1.7c0.1-0.39,0.05-0.81-0.06-1.22c-0.1-0.4-0.28-0.79-0.47-1.13c-0.29-0.51-0.72-0.91-1.17-1.26
		c-0.28-0.22-0.86-0.63-1.27-0.44c-0.47,0.21-0.55,0.67-0.47,1.16C18.28,46.06,18.52,46.57,18.65,46.9"/>
	<path class="st0" d="M46.37,31.24c0.2,0.12,0.41,0.06,0.52-0.12c0.28-0.48,0.61-0.89,0.97-1.28c0.36-0.39,0.76-0.76,1.19-1.09
		c0.8-0.24,1.55-0.6,2.37-0.76c0.66-0.1,1.32-0.1,1.97-0.01c0.2,0.03,0.39,0.08,0.59,0.14c0.19,0.07,0.39,0.14,0.59,0.2
		c0.01,0.02,0.01,0.03,0.02,0.05c0.46,0.74,1.45,1.14,2.1,1.49c0.37,0.19,0.75,0.4,1.13,0.55c0.38,0.15,0.76,0.24,1.15,0.22
		c0.13-0.01,0.24-0.14,0.19-0.31c-0.29-1.03-0.91-1.79-1.69-2.23c-0.39-0.22-0.82-0.38-1.26-0.42c-0.44-0.04-0.89,0-1.33,0.13
		c-0.39-0.2-0.86-0.29-1.26-0.35c-0.69-0.09-1.41-0.06-2.11,0.03c-0.11,0.01-0.21,0.03-0.32,0.04c0.44-0.2,0.88-0.41,1.31-0.63
		c0.28-0.15,0.55-0.3,0.83-0.46c0.28-0.15,0.56-0.29,0.83-0.44c0.56-0.3,1.1-0.64,1.65-0.96c0.35-0.01,0.7,0.02,1.04,0.05
		c0.55,0.06,1.06,0.25,1.55,0.49c0.49,0.26,0.96,0.56,1.44,0.83c-0.03,0.03-0.05,0.06-0.05,0.11c-0.07,0.82,0.64,1.61,1.12,2.13
		c0.29,0.31,0.6,0.56,0.93,0.8c0.33,0.23,0.68,0.43,1.03,0.57c0.1,0.04,0.25,0,0.27-0.14c0.14-0.8-0.04-1.75-0.58-2.32h0.09
		c0.23-0.01,0.46-0.04,0.68-0.1c0.22-0.06,0.44-0.14,0.66-0.21c0.22-0.07,0.84-0.25,0.91-0.57c0.09-0.38-0.2-0.68-0.58-0.89
		c-0.38-0.21-0.85-0.35-1.08-0.39c-0.47-0.08-0.96-0.05-1.43,0.07c-0.47,0.11-0.92,0.3-1.34,0.55c-0.02-0.05-0.06-0.1-0.12-0.14
		c-1.03-0.66-2.24-1.1-3.44-1.32c-0.08-0.01-0.15-0.03-0.23-0.04c0.34-0.21,0.68-0.42,1.01-0.64c0.33-0.22,0.67-0.42,1.01-0.64
		l0.99-0.32l0.62-0.2c0.21-0.06,0.41-0.12,0.62-0.18c0.41-0.13,0.82-0.26,1.23-0.4c0.31-0.07,0.61-0.17,0.92-0.24
		c0.31-0.08,0.62-0.15,0.93-0.2c0.47-0.07,0.93-0.07,1.39-0.05c0.02,0.02,0.04,0.03,0.06,0.04c0.62,0.26,1.4,0.21,2.06,0.32
		c0.76,0.12,1.51,0.39,2.21,0.69c0.29,0.12,0.57,0.26,0.84,0.39c0.14,0.07,0.28,0.14,0.41,0.2c0.14,0.07,0.28,0.15,0.41,0.22
		c0.55,0.29,1.1,0.54,1.68,0.67l0.01,0.02c0.02,0.05,0.09,0.07,0.13,0.04c-0.32,0.84-0.42,1.82-0.45,2.71
		c-0.02,0.69,0.11,1.48,0.68,1.76c0.92,0.51,1.08-1.5,0.95-2.72c0.28,0.35,0.57,0.69,0.87,1c0.21,0.21,0.55,0.56,0.91,0.85
		c0.36,0.28,0.75,0.47,1.07,0.3c0.63-0.33-0.17-1.71-0.41-2.04c-0.3-0.41-0.71-0.76-1.16-1c0.14,0.02,0.32,0.03,0.51,0.05
		c0.19,0.02,0.39,0.03,0.58,0.02c0.38-0.01,0.71-0.1,0.78-0.35c0.22-0.79-0.73-0.91-1.24-1.02c-0.86-0.14-1.75-0.01-2.56,0.28
		c-0.08-0.04-0.17-0.08-0.26-0.11c-0.01-0.03-0.03-0.05-0.06-0.07c-1.17-0.67-2.39-1.41-3.67-1.91c-0.19-0.08-0.39-0.16-0.58-0.23
		c0.5,0.01,1,0,1.49-0.05c0.24-0.03,0.47-0.05,0.71-0.08c0.24-0.03,0.47-0.08,0.7-0.13c0.47-0.1,0.93-0.24,1.39-0.4
		c0.33-0.12,0.66-0.22,1-0.34c0.34-0.12,0.68-0.26,1-0.42c0.28,0.2,0.6,0.37,0.93,0.51c0.33,0.15,0.66,0.29,0.97,0.41
		c0.37,0.15,0.79,0.28,1.21,0.35c0.21,0.04,0.43,0.05,0.64,0.07c0.21,0.02,0.41,0.02,0.62-0.01c0.12-0.01,0.16-0.21,0.04-0.25
		c-0.7-0.27-1.45-0.22-2.16-0.47c-0.19-0.07-0.4-0.14-0.6-0.23c1.08,0.24,2.24,0.17,3.28,0.07c0.02,0,0.02-0.04,0-0.04
		c-0.37-0.02-0.75-0.09-1.13-0.15c-0.38-0.05-0.76-0.1-1.14-0.14c-0.34-0.03-0.67-0.09-1-0.17c-0.16-0.04-0.32-0.08-0.48-0.14
		c-0.16-0.05-0.32-0.1-0.47-0.17c0.26,0.02,0.53,0.03,0.79,0.04c0.26,0,0.52-0.02,0.78-0.06c0.52-0.08,1.03-0.24,1.52-0.46
		c0.47-0.22,0.95-0.47,1.27-0.89c0.23-0.29,0.5-0.81,0.35-1.2c-0.2-0.5-0.71-0.63-1.26-0.56c-0.55,0.07-1.12,0.31-1.46,0.47
		c-0.48,0.23-0.96,0.56-1.38,0.94c-0.43,0.4-0.8,0.85-1.09,1.32c-0.07,0.02-0.13,0.04-0.2,0.06c-0.11-0.05-0.22,0.01-0.27,0.09
		c-0.58,0.22-1.13,0.46-1.7,0.68c-0.47,0.18-0.94,0.32-1.41,0.43c-0.24,0.05-0.48,0.1-0.72,0.14c-0.24,0.03-0.48,0.06-0.72,0.09
		c-0.8,0.1-1.59,0.07-2.37-0.03c-0.78-0.06-1.57-0.18-2.36-0.32c0.19-0.08,0.38-0.15,0.57-0.24c0.47-0.2,0.94-0.43,1.4-0.69
		c0.46-0.27,0.91-0.52,1.33-0.83c0.43-0.31,0.83-0.66,1.19-1.05c0.18-0.2,0.35-0.4,0.51-0.62c0.16-0.21,0.31-0.43,0.44-0.67
		c0.02,0.01,0.05,0.03,0.08,0.03c0.67,0.08,1.36,0.18,2.04,0.25c0.35,0.03,0.69,0.06,1.03,0.09c0.34,0.02,0.68,0.03,1.02,0.02
		c0.33-0.01,0.85-0.13,1.23-0.35c0.38-0.22,0.62-0.52,0.39-0.98c-0.36-0.7-1.34-0.88-2.18-0.89c1-0.67,1.86-1.75,1.65-2.76
		c-0.17-0.79-1.29-0.72-1.87-0.43c-0.51,0.24-0.89,0.71-1.26,1.1l-0.47,0.48v-0.02c-0.05-0.78-0.58-1.42-1.5-1.33
		c-0.48,0.04-0.81,0.37-1.02,0.77c-0.21,0.4-0.31,0.86-0.33,1.21c-0.06,0.81,0.13,2,0.69,2.65c-0.69,0.68-1.39,1.35-2.15,1.9
		c-0.24,0.18-0.48,0.32-0.73,0.48c-0.25,0.16-0.5,0.3-0.76,0.43c-0.52,0.26-1.05,0.48-1.6,0.66c-0.99,0.35-1.96,0.71-2.93,1.01
		c-0.48,0.18-0.96,0.35-1.45,0.51c-0.24,0.08-0.48,0.16-0.72,0.24l-0.36,0.11l-0.36,0.13c0.34-0.31,0.69-0.59,1.03-0.9
		c0.5-0.46,0.97-0.96,1.44-1.48c0.21-0.24,0.52-0.52,0.69-0.83c0.05-0.02,0.09-0.07,0.1-0.13l0.06-0.02
		c0.08,0.02,0.17,0.02,0.23-0.04c0.03-0.03,0.07-0.07,0.1-0.1c0.14-0.07,0.28-0.16,0.42-0.24c0.44-0.25,0.86-0.53,1.28-0.83
		c0.73-0.5,1.44-1.16,1.88-1.95c0.22-0.41,0.39-1.18-0.32-1.2c-0.41-0.01-0.82,0.04-1.2,0.15c-0.38,0.11-0.73,0.28-1.04,0.55
		c-0.07-0.23-0.15-0.47-0.17-0.7c-0.02-0.38-0.2-0.69-0.59-0.82c-0.88-0.29-1.4,1.2-1.53,1.7c-0.24,0.96-0.06,2.11,0.29,3.08
		c-0.29,0.28-0.53,0.68-0.8,0.98c-0.42,0.47-0.88,0.91-1.33,1.32c-0.44,0.38-0.88,0.78-1.34,1.14c-0.47,0.37-1.1,0.65-1.48,1.11
		c-0.77,0.32-1.53,0.66-2.25,1.05c-0.5,0.29-0.98,0.61-1.46,0.92c-0.49,0.31-0.97,0.62-1.44,0.92c-0.42,0.26-0.88,0.48-1.35,0.67
		l-0.36,0.14l-0.35,0.16l-0.71,0.31c0.19-0.22,0.37-0.44,0.54-0.67c0.24-0.31,0.49-0.6,0.75-0.91c0.25-0.31,0.51-0.63,0.75-0.96
		c0.25-0.33,0.48-0.68,0.69-1.03c0.22-0.34,0.42-0.69,0.59-1.05c0.01-0.03,0.02-0.05,0.02-0.07c0.47,0,0.95-0.06,1.41-0.17
		c0.46-0.11,0.92-0.23,1.35-0.41c0.28-0.12,1.89-0.88,1.36-1.43c-0.33-0.34-0.9-0.37-1.46-0.3c0.3-0.22,0.59-0.48,0.86-0.76
		c0.27-0.29,0.53-0.56,0.75-0.88c0.44-0.62,0.74-1.32,0.77-2.04c0-0.15-0.14-0.27-0.3-0.24c-0.85,0.2-1.61,0.53-2.29,1.09
		c-0.6,0.47-0.94,1.03-1.27,1.62c-0.02-0.5-0.12-1-0.27-1.45c-0.03-0.1-0.14-0.2-0.26-0.18c-0.55,0.06-0.92,0.44-1.18,0.88
		c-0.27,0.44-0.43,0.97-0.57,1.4c-0.33,1.01-0.31,2.21,0.32,3.08c-0.36,0.47-0.67,0.98-1.02,1.45c-0.45,0.63-0.95,1.18-1.44,1.77
		c-0.3,0.35-0.61,0.67-0.92,0.98c-0.16,0.16-0.32,0.31-0.48,0.46c-0.16,0.15-0.31,0.32-0.46,0.48c0.1-0.27,0.2-0.54,0.31-0.81
		c0.26-0.66,0.54-1.31,0.83-1.98c0.22-0.5,0.6-1.11,0.66-1.68c0.65-0.46,0.97-1.36,1.1-2.13c0.1-0.58,0.03-1.17-0.1-1.73
		c-0.08-0.35-0.26-1.03-0.69-1.15c-0.99-0.26-1.39,1.26-1.6,1.92c-0.19,0.56-0.23,1.2-0.15,1.81c0.08,0.61,0.27,1.21,0.54,1.73
		c0.02,0.04,0.05,0.07,0.08,0.09c-0.12,0.25-0.22,0.5-0.32,0.72l-0.49,1.09c-0.16,0.36-0.32,0.71-0.47,1.09
		c-0.27,0.65-0.55,1.27-0.92,1.83c-0.35,0.51-0.7,0.99-0.91,1.58c-0.05,0.15,0.03,0.32,0.15,0.41
		C45.86,30.71,46.05,31.04,46.37,31.24"/>
	<path class="st0" d="M81.78,25.43c0.53-0.07,1.06-0.1,1.61-0.09c0.39,0.13,0.78,0.28,1.17,0.42c0.39,0.14,0.78,0.29,1.14,0.49
		c0.29,0.15,0.56,0.35,0.82,0.55c0.25,0.21,0.5,0.44,0.72,0.68c0.27,0.29,0.48,0.65,0.7,0.99c-0.01,0.02-0.01,0.03-0.01,0.05
		c-0.11,0.86,0.4,1.81,0.68,2.5c0.16,0.4,0.33,0.77,0.53,1.13c0.2,0.36,0.43,0.68,0.75,0.91c0.11,0.08,0.27,0.05,0.34-0.12
		c0.42-0.98,0.43-1.96,0.11-2.81c-0.08-0.21-0.18-0.41-0.3-0.6c-0.12-0.18-0.26-0.35-0.42-0.51c-0.31-0.31-0.69-0.57-1.11-0.75
		c-0.09-0.2-0.21-0.4-0.34-0.58c-0.13-0.17-0.28-0.33-0.42-0.48c-0.48-0.51-1.05-0.95-1.65-1.33c-0.09-0.05-0.19-0.1-0.28-0.16
		l0.36,0.08l0.35,0.09c0.23,0.06,0.47,0.12,0.71,0.16c0.31,0.06,0.62,0.12,0.93,0.18c0.16,0.03,0.31,0.05,0.47,0.08
		c0.15,0.03,0.31,0.06,0.46,0.09c0.62,0.12,1.25,0.22,1.88,0.3c0.28,0.2,0.53,0.45,0.77,0.7c0.77,0.8,1.09,1.88,1.48,2.91
		c-0.04,0-0.07,0.02-0.1,0.05c-0.57,0.59-0.52,1.65-0.48,2.37c0.03,0.42,0.1,0.83,0.22,1.21c0.12,0.38,0.26,0.76,0.44,1.09
		c0.05,0.1,0.19,0.16,0.3,0.06c0.61-0.53,1.08-1.38,1.01-2.17l0.07,0.06c0.37,0.29,0.79,0.46,1.24,0.6c0.22,0.08,0.8,0.33,1.06,0.14
		c0.31-0.24,0.27-0.65,0.11-1.06c-0.08-0.2-0.19-0.4-0.3-0.58c-0.11-0.17-0.22-0.31-0.3-0.4c-0.31-0.37-0.71-0.65-1.14-0.86
		c-0.22-0.1-0.44-0.2-0.68-0.26c-0.24-0.06-0.47-0.11-0.71-0.15c0.02-0.06,0.02-0.12,0-0.19c-0.19-0.59-0.45-1.15-0.76-1.7
		c-0.32-0.53-0.69-1.02-1.08-1.5c-0.05-0.06-0.1-0.12-0.15-0.17c0.39,0.06,0.79,0.11,1.18,0.15c0.2,0.02,0.4,0.04,0.6,0.06
		c0.2,0.02,0.39,0.05,0.59,0.07l0.96,0.38c0.4,0.16,0.81,0.3,1.21,0.47c0.4,0.17,0.8,0.33,1.21,0.48c0.28,0.14,0.58,0.26,0.87,0.39
		c0.29,0.13,0.57,0.27,0.84,0.44c0.4,0.24,0.76,0.53,1.1,0.85c0,0.02,0.01,0.05,0.02,0.07c0.33,0.59,0.96,1.04,1.39,1.54
		c0.52,0.57,0.92,1.26,1.27,1.93c0.29,0.55,0.53,1.12,0.77,1.69c0.25,0.57,0.51,1.1,0.88,1.58l-0.01,0.02
		c-0.02,0.06,0.03,0.11,0.08,0.11c-0.78,0.44-1.48,1.14-2.07,1.81c-0.46,0.52-0.84,1.2-0.61,1.8c0.39,0.97,1.79-0.49,2.47-1.5
		c0,0.45,0,0.89,0.04,1.32c0.04,0.6,0.08,2.01,0.79,2.15c0.7,0.14,0.96-1.42,0.97-1.83c0.03-0.51-0.08-1.02-0.25-1.51
		c0.37,0.42,1.2,1.27,1.62,0.97c0.67-0.47,0.01-1.16-0.32-1.56c-0.14-0.17-0.29-0.33-0.45-0.47c-0.16-0.14-0.34-0.27-0.53-0.38
		c-0.37-0.23-0.76-0.42-1.17-0.56c-0.04-0.08-0.08-0.17-0.13-0.25c0.01-0.03,0.01-0.06,0-0.09c-0.22-0.65-0.48-1.27-0.74-1.92
		c-0.13-0.32-0.27-0.65-0.41-0.97c-0.15-0.31-0.31-0.62-0.47-0.92c-0.1-0.18-0.2-0.36-0.31-0.54c0.38,0.33,0.78,0.63,1.19,0.9
		c0.77,0.56,1.64,0.96,2.55,1.3c0.63,0.26,1.33,0.52,2.04,0.68c0.04,0.17,0.1,0.33,0.17,0.5c0.06,0.17,0.13,0.33,0.21,0.5
		c0.15,0.33,0.33,0.64,0.49,0.93c0.19,0.35,0.44,0.7,0.71,1.04c0.27,0.33,0.58,0.63,0.92,0.85c0.1,0.06,0.26-0.05,0.19-0.17
		c-0.39-0.63-0.95-1.12-1.36-1.74c-0.11-0.17-0.22-0.36-0.32-0.56c0.17,0.21,0.36,0.42,0.56,0.61c0.2,0.19,0.41,0.37,0.62,0.56
		c0.42,0.36,0.87,0.69,1.31,0.96c0.02,0.01,0.05-0.02,0.03-0.03c-0.28-0.25-0.53-0.54-0.79-0.83c-0.25-0.29-0.5-0.59-0.77-0.85
		c-0.49-0.48-0.91-1-1.21-1.6c0.36,0.39,0.77,0.72,1.23,0.98c0.23,0.13,0.47,0.25,0.71,0.35c0.25,0.1,0.49,0.2,0.75,0.27
		c0.49,0.15,1.04,0.24,1.55,0.12c0.37-0.08,0.91-0.31,1.03-0.7c0.32-1.02-1.3-1.66-2.04-1.81c-1.05-0.25-2.31-0.2-3.34,0.16
		c-0.06-0.02-0.13-0.05-0.2-0.08c-0.06-0.1-0.17-0.13-0.27-0.1c-0.58-0.2-1.19-0.35-1.75-0.56c-0.94-0.33-1.82-0.74-2.62-1.3
		c-0.68-0.43-1.27-0.95-1.82-1.52c-0.56-0.55-1.1-1.13-1.62-1.74c0.2,0.06,0.39,0.12,0.59,0.18c0.49,0.14,1,0.26,1.52,0.35
		c0.52,0.09,1.03,0.17,1.56,0.2c1.05,0.06,2.13-0.07,3.14-0.44c0.01,0.03,0.02,0.05,0.04,0.08c0.47,0.48,0.94,0.99,1.43,1.48
		c0.47,0.51,0.97,0.99,1.51,1.39c0.13,0.1,0.32,0.21,0.53,0.3c0.2,0.1,0.42,0.18,0.63,0.22c0.42,0.08,0.82-0.01,0.92-0.51
		c0.08-0.38-0.02-0.78-0.24-1.14c-0.22-0.35-0.55-0.68-0.87-0.95c1.21,0.11,2.56-0.18,3.04-1.09c0.37-0.72-0.55-1.36-1.18-1.52
		c-0.56-0.13-1.13-0.03-1.67,0.04c-0.22,0.03-0.45,0.05-0.67,0.08l0.01-0.02c0.46-0.63,0.45-1.47-0.33-1.98
		c-0.81-0.54-1.82,0.16-2.3,0.67c-0.56,0.59-1.16,1.62-1.15,2.49c-0.96,0.08-1.93,0.16-2.87,0.11c-0.29-0.02-0.58-0.05-0.87-0.09
		c-0.29-0.04-0.58-0.09-0.86-0.15c-0.57-0.13-1.12-0.3-1.65-0.5c-0.49-0.18-0.99-0.34-1.47-0.52c-0.49-0.17-0.96-0.37-1.44-0.54
		c-0.48-0.17-0.96-0.34-1.44-0.53c-0.24-0.09-0.47-0.19-0.71-0.28c-0.24-0.09-0.48-0.17-0.72-0.26c0.23-0.01,0.46-0.02,0.68-0.03
		c0.22-0.01,0.45-0.02,0.68-0.03c0.67-0.03,1.36-0.12,2.04-0.23c0.31-0.05,0.74-0.09,1.06-0.22c0.05,0.01,0.11,0,0.16-0.04
		l0.06,0.03c0.05,0.07,0.13,0.12,0.21,0.12c0.05,0,0.09-0.01,0.14-0.02c0.16,0.03,0.32,0.05,0.47,0.08c0.5,0.08,1,0.14,1.52,0.17
		c0.89,0.07,1.85,0.02,2.69-0.33c0.43-0.18,1.05-0.66,0.52-1.13c-0.31-0.27-0.66-0.49-1.02-0.65c-0.18-0.08-0.37-0.14-0.56-0.18
		c-0.19-0.04-0.39-0.05-0.59-0.05c0.09-0.23,0.18-0.46,0.31-0.64c0.22-0.31,0.28-0.66,0.06-1.01c-0.5-0.78-1.84,0.04-2.26,0.35
		c-0.8,0.6-1.39,1.61-1.72,2.57c-0.41,0.04-0.85,0.19-1.24,0.26c-0.63,0.1-1.25,0.15-1.87,0.18c-0.59,0.04-1.18,0.05-1.76,0.04
		c-0.6-0.01-1.26-0.2-1.85-0.06c-0.4-0.12-0.8-0.24-1.2-0.35c-0.4-0.1-0.8-0.21-1.21-0.26c-1.15-0.17-2.28-0.28-3.41-0.41
		c-0.49-0.07-0.98-0.2-1.47-0.34C86,24.55,85.5,24.4,85,24.26c0.28-0.05,0.56-0.11,0.84-0.17c0.37-0.08,0.76-0.17,1.16-0.25
		c0.39-0.08,0.79-0.16,1.19-0.26c0.79-0.2,1.6-0.48,2.31-0.81c0.02-0.01,0.04-0.03,0.06-0.04c0.37,0.3,0.77,0.56,1.19,0.77
		c0.21,0.11,0.43,0.2,0.65,0.28c0.22,0.09,0.44,0.17,0.66,0.24c0.29,0.09,2.02,0.53,1.95-0.24c-0.04-0.47-0.46-0.86-0.94-1.15
		c0.74,0.04,1.55-0.06,2.28-0.26c0.73-0.2,1.41-0.55,1.88-1.09c0.1-0.12,0.07-0.3-0.08-0.38c-0.39-0.2-0.79-0.35-1.19-0.45
		c-0.41-0.09-0.84-0.14-1.27-0.14c-0.76-0.01-1.37,0.2-2,0.44c0.3-0.4,0.54-0.84,0.71-1.29c0.04-0.1,0.02-0.25-0.09-0.31
		c-0.96-0.54-2.04,0.18-2.8,0.66c-0.44,0.28-0.86,0.66-1.16,1.11c-0.31,0.45-0.51,0.96-0.54,1.49c-0.58,0.15-1.14,0.34-1.71,0.48
		c-0.37,0.1-0.74,0.18-1.11,0.25c-0.38,0.09-0.75,0.16-1.12,0.22c-0.9,0.15-1.78,0.19-2.66,0.32c0.25-0.14,0.5-0.29,0.75-0.44
		c0.31-0.19,0.62-0.35,0.94-0.52l0.96-0.49c0.49-0.25,1.16-0.47,1.57-0.89c0.8,0.05,1.61-0.44,2.19-0.95
		c0.44-0.38,0.76-0.88,1.02-1.4c0.16-0.32,0.45-0.96,0.19-1.33c-0.6-0.83-1.87,0.08-2.44,0.47c-1.01,0.67-1.71,1.85-1.93,3
		c-0.01,0.04,0,0.08,0.01,0.12c-0.25,0.11-0.49,0.25-0.71,0.35l-1.07,0.53c-0.35,0.18-0.71,0.38-1.05,0.56
		c-0.62,0.33-1.23,0.63-1.87,0.83c-0.59,0.18-1.17,0.34-1.71,0.66c-0.13,0.08-0.17,0.26-0.14,0.42c-0.25,0.25-0.31,0.63-0.18,0.99
		c0.08,0.22,0.28,0.31,0.48,0.24c0.26-0.09,0.52-0.17,0.78-0.24C81.25,25.51,81.51,25.47,81.78,25.43"/>
	<path class="st0" d="M133.69,66.6c-0.34-0.46-0.86-0.76-1.3-1.06c-0.19-0.13-0.37-0.26-0.55-0.38l0.02-0.01
		c0.76-0.18,1.33-0.83,1.03-1.72c-0.29-0.93-1.49-1.06-2.19-0.99c-0.8,0.08-1.95,0.48-2.5,1.16c-0.78-0.57-1.53-1.14-2.24-1.79
		c-0.44-0.4-0.82-0.84-1.16-1.31c-0.08-0.12-0.17-0.23-0.25-0.35c-0.08-0.12-0.17-0.24-0.25-0.36c-0.16-0.24-0.31-0.49-0.46-0.74
		c-0.26-0.45-0.51-0.91-0.76-1.36c-0.27-0.44-0.53-0.89-0.77-1.34c-0.48-0.9-1.02-1.77-1.5-2.66c0.35,0.29,0.71,0.57,1.08,0.84
		c0.27,0.2,0.56,0.39,0.85,0.58c0.28,0.19,0.57,0.38,0.86,0.56c0.27,0.17,0.6,0.42,0.95,0.52c0.04,0.04,0.09,0.07,0.15,0.08
		l0.03,0.06c-0.01,0.08,0.02,0.17,0.09,0.22c0.04,0.03,0.08,0.05,0.12,0.08c0.1,0.12,0.22,0.24,0.32,0.36
		c0.33,0.39,0.66,0.76,1.03,1.12c0.64,0.63,1.45,1.2,2.28,1.49c0.44,0.15,1.22,0.18,1.13-0.53c-0.12-0.82-0.51-1.57-1.11-2.08
		c0.22-0.11,0.43-0.24,0.66-0.29c0.37-0.09,0.65-0.32,0.71-0.74c0.08-0.46-0.3-0.75-0.75-0.93c-0.44-0.18-0.97-0.24-1.23-0.26
		c-1-0.06-2.09,0.33-2.97,0.85c-0.33-0.24-0.76-0.4-1.09-0.61c-0.26-0.17-0.53-0.34-0.79-0.52c-0.26-0.18-0.52-0.36-0.77-0.54
		c-0.48-0.35-0.92-0.73-1.35-1.11c-0.46-0.39-0.87-0.94-1.4-1.23c-0.41-0.72-0.93-1.38-1.46-2.01c-0.19-0.22-0.38-0.44-0.57-0.65
		l-0.6-0.62c-0.4-0.41-0.8-0.82-1.17-1.25c-0.34-0.36-0.65-0.76-0.94-1.18c-0.29-0.42-0.55-0.87-0.86-1.28
		c0.25,0.14,0.52,0.27,0.76,0.41c0.66,0.36,1.38,0.76,2.13,1.1c0.74,0.35,1.5,0.68,2.28,0.86c0.03,0.01,0.05,0.01,0.08,0.01
		c0.21,0.91,0.57,1.84,1.1,2.6c0.08,0.13,0.41,0.54,0.73,0.87c0.33,0.32,0.69,0.53,0.92,0.21c0.14-0.2,0.19-0.44,0.19-0.7
		c0-0.26-0.06-0.54-0.16-0.8c0.29,0.24,0.58,0.49,0.89,0.71c0.32,0.22,0.65,0.41,1,0.57c0.7,0.31,1.45,0.48,2.17,0.36
		c0.15-0.02,0.25-0.19,0.17-0.34c-0.36-0.8-0.87-1.47-1.5-2.04c-0.57-0.5-1.2-0.72-1.85-0.94c0.49-0.12,0.96-0.3,1.38-0.54
		c0.09-0.05,0.17-0.18,0.13-0.29c-0.18-0.52-0.6-0.83-1.07-1.01c-0.49-0.18-1.04-0.23-1.49-0.29c-1.06-0.13-2.24,0.12-2.98,0.91
		c-0.53-0.26-1.06-0.49-1.61-0.73c-0.71-0.32-1.37-0.68-2.01-1.07c-0.8-0.45-1.53-0.96-2.25-1.45c0.28,0.06,0.56,0.11,0.84,0.16
		c0.7,0.12,1.4,0.27,2.11,0.42c0.54,0.11,1.18,0.39,1.76,0.33c0.58,0.55,1.54,0.67,2.32,0.66c0.58-0.01,1.14-0.19,1.67-0.42
		c0.33-0.14,0.96-0.45,1-0.9c0.05-0.52-0.34-0.8-0.81-0.96c-0.48-0.16-1.04-0.2-1.38-0.24c-1.19-0.14-2.47,0.31-3.38,1.06
		c-0.03,0.03-0.06,0.06-0.07,0.1c-0.26-0.07-0.54-0.12-0.78-0.17c-0.78-0.19-1.56-0.35-2.32-0.52c-0.33-0.08-0.67-0.15-1.01-0.23
		c-0.33-0.08-0.66-0.19-0.97-0.31c-0.58-0.23-1.08-0.51-1.72-0.59c-0.15-0.02-0.3,0.09-0.38,0.23c-0.35,0.04-0.64,0.29-0.77,0.64
		c-0.08,0.22,0.02,0.41,0.22,0.48c0.5,0.2,0.98,0.43,1.44,0.71c0.23,0.14,0.46,0.29,0.67,0.44c0.22,0.16,0.42,0.34,0.62,0.52
		c0.2,0.37,0.42,0.71,0.64,1.07c0.11,0.18,0.22,0.35,0.31,0.54c0.09,0.19,0.17,0.38,0.25,0.57c0.23,0.62,0.37,1.26,0.4,1.92
		c0.01,0.4-0.07,0.82-0.12,1.22c-0.02,0.01-0.03,0.02-0.05,0.03c-0.32,0.29-0.52,0.7-0.68,1.12c-0.15,0.42-0.25,0.86-0.38,1.22
		c-0.27,0.82-0.51,1.62-0.32,2.38c0.03,0.13,0.17,0.21,0.33,0.13c0.48-0.24,0.88-0.55,1.2-0.9c0.32-0.35,0.54-0.75,0.68-1.17
		c0.14-0.42,0.19-0.87,0.17-1.31c-0.02-0.22-0.05-0.45-0.11-0.66c-0.07-0.21-0.15-0.42-0.26-0.62c0.12-0.42,0.11-0.89,0.1-1.29
		c0-0.72-0.21-1.4-0.43-2.07c-0.04-0.1-0.07-0.2-0.11-0.3c0.29,0.39,0.58,0.78,0.89,1.15c0.21,0.24,0.39,0.49,0.59,0.73
		c0.2,0.25,0.4,0.49,0.6,0.73c0.2,0.24,0.42,0.48,0.63,0.72c0.2,0.24,0.41,0.48,0.62,0.72c0.08,0.34,0.13,0.68,0.16,1.02
		c0.06,0.54-0.06,1.09-0.21,1.62c-0.16,0.53-0.36,1.04-0.52,1.55c-0.03-0.02-0.07-0.03-0.11-0.03c-0.41,0.04-0.77,0.28-1.09,0.57
		c-0.31,0.29-0.58,0.64-0.8,0.93c-0.51,0.69-0.84,1.44-0.98,2.17c-0.02,0.11,0.05,0.24,0.2,0.24c0.4-0.01,0.83-0.1,1.21-0.27
		c0.39-0.17,0.73-0.42,0.95-0.74l0.02,0.09c0.1,0.45,0.29,0.86,0.53,1.26c0.12,0.2,0.42,0.76,0.75,0.78
		c0.79,0.04,0.92-1.37,0.92-1.86c0.01-0.24-0.02-0.48-0.07-0.72c-0.05-0.23-0.14-0.46-0.25-0.67c-0.21-0.43-0.49-0.84-0.79-1.2
		c0.05-0.04,0.09-0.08,0.12-0.15c0.13-0.29,0.22-0.58,0.3-0.87c0.08-0.3,0.14-0.6,0.19-0.9c0.05-0.3,0.09-0.61,0.12-0.92
		c0.03-0.31,0.05-0.62,0.04-0.93c0-0.08,0-0.15-0.01-0.23c0.14,0.14,0.27,0.29,0.41,0.43c0.13,0.15,0.26,0.29,0.4,0.44
		c0.27,0.29,0.54,0.58,0.83,0.87c0.17,0.3,0.35,0.6,0.5,0.91c0.2,0.38,0.4,0.77,0.6,1.14c0.11,0.19,0.21,0.38,0.32,0.57
		c0.11,0.19,0.22,0.38,0.32,0.57c0.23,0.59,0.55,1.14,0.78,1.74c0.17,0.44,0.23,0.9,0.28,1.36c-0.01,0.02-0.02,0.04-0.03,0.07
		c-0.07,0.33-0.05,0.68-0.01,1.03c0.02,0.18,0.05,0.35,0.07,0.53c0.01,0.17,0.02,0.35,0.02,0.51c-0.01,0.78-0.11,1.55-0.27,2.3
		c-0.16,0.61-0.36,1.2-0.53,1.78c-0.09,0.29-0.16,0.58-0.22,0.88c-0.07,0.29-0.13,0.59-0.15,0.89l-0.02,0.01
		c-0.05,0.03-0.05,0.1-0.02,0.14c-0.87-0.17-1.85-0.09-2.74,0.03c-0.68,0.1-1.44,0.37-1.63,0.97c-0.31,0.98,1.7,0.79,2.87,0.46
		c-0.29,0.34-0.6,0.68-0.85,1.02c-0.18,0.24-0.48,0.64-0.69,1.04c-0.1,0.2-0.18,0.4-0.2,0.59c-0.03,0.19-0.01,0.36,0.1,0.5
		c0.21,0.28,0.63,0.17,1.03-0.05c0.4-0.22,0.79-0.56,0.92-0.7c0.34-0.37,0.59-0.82,0.77-1.3c0.01,0.28,0.04,0.71,0.13,1.08
		c0.1,0.37,0.22,0.68,0.48,0.7c0.41,0.04,0.61-0.18,0.71-0.47c0.08-0.29,0.07-0.66,0.07-0.92c0-0.43-0.06-0.87-0.17-1.28
		c-0.03-0.1-0.06-0.21-0.1-0.31c-0.04-0.1-0.08-0.2-0.13-0.3c-0.09-0.2-0.2-0.39-0.31-0.58c0.02-0.09,0.04-0.18,0.06-0.27
		c0.02-0.01,0.05-0.04,0.06-0.07c0.12-0.32,0.25-0.64,0.37-0.96c0.06-0.16,0.13-0.33,0.18-0.49c0.05-0.16,0.1-0.33,0.16-0.49
		c0.2-0.66,0.4-1.33,0.56-2.01c0.05-0.21,0.08-0.41,0.11-0.61l0.07,0.37l0.07,0.37c0.05,0.24,0.1,0.49,0.16,0.73
		c0.12,0.46,0.28,0.91,0.48,1.35c0.18,0.44,0.38,0.87,0.61,1.3c0.16,0.3,0.34,0.62,0.52,0.93c0.09,0.16,0.2,0.31,0.29,0.46
		c0.09,0.15,0.19,0.3,0.3,0.45c-0.32,0.62-0.45,1.38-0.58,2.03c-0.17,0.79-0.24,1.72,0.01,2.5c0.03,0.11,0.23,0.13,0.25,0
		c0.1-0.73-0.03-1.47,0.11-2.21c0.04-0.2,0.07-0.41,0.11-0.63c0,0.55,0.02,1.11,0.12,1.66c0.09,0.55,0.22,1.08,0.39,1.59
		c0.01,0.02,0.05,0.02,0.04,0c-0.1-0.74-0.07-1.54-0.11-2.29c-0.01-0.17-0.01-0.34-0.01-0.51c-0.01-0.17-0.01-0.33,0-0.5
		c0.01-0.33,0.05-0.66,0.13-0.99c0.03,0.53,0.14,1.04,0.32,1.54c0.16,0.5,0.39,0.97,0.69,1.42c0.29,0.43,0.64,0.86,1.11,1.11
		c0.33,0.17,0.9,0.35,1.24,0.14c0.91-0.57,0.05-2.1-0.37-2.7c-0.63-0.88-1.66-1.65-2.66-2.06c-0.03-0.06-0.06-0.12-0.09-0.19
		c0.03-0.12-0.04-0.21-0.13-0.25c-0.3-0.53-0.69-1.03-0.98-1.56c-0.25-0.43-0.45-0.87-0.64-1.32c-0.2-0.45-0.37-0.9-0.5-1.37
		c-0.11-0.39-0.18-0.78-0.24-1.17c-0.07-0.39-0.12-0.78-0.16-1.17c-0.03-0.39-0.05-0.79-0.06-1.19c-0.01-0.4-0.04-0.79-0.05-1.19
		c0.11,0.17,0.23,0.34,0.35,0.51c0.31,0.42,0.58,0.85,0.92,1.25c0.33,0.41,0.69,0.8,1.08,1.16c0.77,0.72,1.63,1.34,2.66,1.71
		c-0.01,0.03-0.02,0.05-0.01,0.09c0.02,0.34,0.06,0.68,0.07,1.02c0.01,0.35,0.02,0.69,0.04,1.04c0.02,0.35,0.05,0.69,0.1,1.03
		c0.04,0.34,0.11,0.68,0.17,1.01c0.13,0.65,0.76,1.98,1.56,1.38c0.31-0.24,0.47-0.61,0.55-1.02c0.04-0.21,0.05-0.43,0.04-0.65
		c0-0.11-0.01-0.22-0.02-0.33c-0.01-0.11-0.03-0.21-0.05-0.32c0.22,0.22,0.45,0.42,0.69,0.6c0.24,0.18,0.5,0.33,0.76,0.45
		c0.52,0.23,1.06,0.3,1.54,0.11C134.34,68.22,134.1,67.13,133.69,66.6"/>
</g>
<g>
	<path d="M45.88,77.37c0,4.08-2.22,6.62-5.38,6.62c-2.85,0-4.83-1.98-4.83-4.5c0-1.23,0.54-2.1,1.06-2.1c0.24,0,0.38,0.17,0.38,0.38
		c0,0.33-0.75,0.33-0.75,1.93c0,2.14,1.77,3.84,4.15,3.84c0.99,0,1.89-0.38,2.55-1.06c0.9-0.94,1.06-2.19,1.06-4.05
		c0-1.86-0.24-3.32-0.24-4.34c0-2.43,0.31-4.55,1.89-7.19c-0.97,0.78-2.1,1.18-3.32,1.18c-1.82,0-3.58-1.11-5.49-1.11
		c-2.31,0-3.94,1.58-3.94,3.73c0,2.19,1.65,3.72,3.98,3.72c1.04,0,1.77-0.28,2.07-0.73c0-0.26,0.09-0.4,0.24-0.4
		c0.14,0,0.26,0.12,0.26,0.28c0,0.66-0.97,1.46-2.55,1.46c-2.64,0-4.43-1.79-4.43-4.34c0-2.78,2.33-4.88,5.28-4.88
		c2.17,0,3.96,1.32,5.78,1.32c0.78,0,1.39-0.21,2.05-0.68c0.45-0.26,0.54-0.54,0.71-0.54c0.14,0,0.28,0.12,0.28,0.31
		c0,0.09-0.14,0.28-0.42,0.5c-0.59,0.83-0.83,2.4-0.83,4.79c0,0.83,0.09,1.86,0.24,3.09c0.24-0.02,0.45-0.05,0.66-0.05
		c0.05,0,0.21,0.02,0.52,0.05c1.25-0.31,2.36-1.63,3.51-3.94c1.65-3.25,2.85-4.95,3.75-4.95c0.21,0,0.38,0.14,0.38,0.33
		c0,0.12-0.07,0.19-0.12,0.19c-0.09,0-0.17,0-0.26,0c-0.07,0-0.19,0-0.28,0.05c-0.73,0.31-1.34,1.7-2.36,3.87
		c-1.25,2.66-2.5,4.22-4.27,4.74c1.63,0.24,2.83,1.37,3.56,3.37c0.85,2.31,0.9,4.36,2.52,4.36c0.31,0,0.59-0.17,0.83-0.47
		c0.07-0.24,0.16-0.33,0.31-0.33c0.14,0,0.24,0.09,0.24,0.19c0,0.42-0.66,1.06-1.79,1.06c-1.46,0-2.52-0.97-3.23-2.92
		c-0.61-1.72-0.82-3.23-1.58-4.13c-0.47-0.57-1.08-0.82-1.84-0.82c-0.05,0-0.19,0-0.42,0.02C45.83,76.14,45.88,76.88,45.88,77.37z"
		/>
	<path d="M56.56,80.55c0,1.53,0.26,2.29,1.13,2.29c0.35,0,0.61-0.09,0.9-0.33c0-0.28,0.09-0.45,0.26-0.45
		c0.17,0,0.26,0.14,0.26,0.33c0,0.4-0.54,0.75-1.51,0.75c-1.41,0-2.31-1.13-2.31-3.3c0-0.87,0.21-2.38,0.45-4.55
		c-0.14-0.12-0.19-0.24-0.19-0.35c0-0.26,0.28-0.45,0.83-0.45c0.59,0,0.99,0.47,0.99,0.73c0,0.14-0.07,0.26-0.21,0.38
		C56.73,77.61,56.56,79.3,56.56,80.55z M55.43,72.54c0-0.5,0.47-0.87,1.11-0.87c0.75,0,1.18,0.35,1.18,0.87
		c0,0.42-0.45,0.85-1.13,0.85C55.83,73.39,55.43,73.1,55.43,72.54z"/>
	<path d="M65.83,80.22c0.5-4.34,1.32-6.55,2.36-6.55c1.01,0,1.13,1.15,1.13,3.39c0,0.14,0,0.73,0,1.72c0,1.93,0.19,2.88,0.5,2.88
		c0.09,0,0.21-0.12,0.35-0.12c0.07,0,0.14,0.09,0.14,0.17c0,0.14-0.17,0.28-0.5,0.28c-0.97,0-1.74-1.11-1.74-3.32
		c0-0.54,0.05-1.44,0.05-2.69c0-1.01-0.05-1.46-0.4-1.46c-0.33,0-0.8,1.18-1.23,3.46c-0.54,2.97-0.26,4.31-1.18,4.31
		c-0.8,0-0.87-0.5-0.87-1.6c0-0.21,0-0.45,0-0.71c0-0.66,0-1.16,0-1.53c0-2.38-0.12-3.56-0.68-3.56c-0.42,0-1.06,1.53-1.53,4.41
		c-0.4,2.52-0.21,3.63-1.27,3.63c-0.75,0-1.06-0.54-1.06-1.86c0-2.99,0.71-5.49,0.71-6.79c0-0.05-0.02-0.24-0.07-0.52l0.07-0.19
		c0.21-0.14,0.4-0.19,0.64-0.19c0.54,0,0.78,0.12,0.85,0.54c-0.59,1.93-0.99,4.55-0.99,7.17c0,0.38,0.12,0.57,0.26,0.57
		c0.21,0,0.21-0.99,0.59-2.99c0.57-3.04,1.34-4.57,2.26-4.57c1.13,0,1.46,1.34,1.46,3.98c0,0.54-0.02,1.06-0.02,1.53
		c0,0.07,0,0.28,0.02,0.61H65.83z"/>
	<path d="M76.06,74.33c1.49,0,2.64,1.6,2.64,4.15c0,2.66-1.65,4.6-3.82,4.6c-0.68,0-1.32-0.14-1.86-0.4
		c-0.05,0.66-0.07,1.13-0.07,1.42c0,1.39,0.02,2.38,0.14,2.97l0.16,0.35c-0.07,0.28-0.49,0.47-1.11,0.47c-0.33,0-0.45-0.05-0.52-0.4
		c0.02-0.24,0.02-0.47,0.02-0.78c0-0.14,0-0.68,0-1.6c0-7.52,0.66-11.32,0.66-11.79c0-0.19-0.02-0.33-0.05-0.5
		c0.02-0.19,0.14-0.26,0.35-0.26c0.54,0,0.92,0.24,1.08,0.59l0.05,0.21c-0.28,0.07-0.9,2.62-0.99,7.31
		C73.47,76.43,74.31,74.33,76.06,74.33z M75,82.77c1.56,0,2.45-1.37,2.45-3.87c0-2.45-0.85-3.77-1.86-3.77
		c-1.27,0-1.93,2.1-2.5,6.58C73.44,82.13,73.35,82.77,75,82.77z"/>
	<path d="M84.9,74.33c1.48,0,2.64,1.6,2.64,4.15c0,2.66-1.65,4.6-3.82,4.6c-0.68,0-1.32-0.14-1.86-0.4
		c-0.05,0.66-0.07,1.13-0.07,1.42c0,1.39,0.02,2.38,0.14,2.97l0.17,0.35c-0.07,0.28-0.5,0.47-1.11,0.47c-0.33,0-0.45-0.05-0.52-0.4
		c0.02-0.24,0.02-0.47,0.02-0.78c0-0.14,0-0.68,0-1.6c0-7.52,0.66-11.32,0.66-11.79c0-0.19-0.02-0.33-0.05-0.5
		c0.02-0.19,0.14-0.26,0.35-0.26c0.54,0,0.92,0.24,1.08,0.59l0.05,0.21c-0.28,0.07-0.9,2.62-0.99,7.31
		C82.31,76.43,83.16,74.33,84.9,74.33z M83.84,82.77c1.56,0,2.45-1.37,2.45-3.87c0-2.45-0.85-3.77-1.86-3.77
		c-1.27,0-1.93,2.1-2.5,6.58C82.28,82.13,82.19,82.77,83.84,82.77z"/>
	<path d="M91.13,82.75c-1.08,0-1.81-1.27-1.81-3.58c0-1.67,0.28-2.95,0.28-3.77c0-0.28,0-0.54-0.05-0.8c0-0.24,0.24-0.4,0.66-0.4
		c0.71,0,0.92,0.61,0.92,0.66c-0.24,0.42-0.64,2.22-0.64,4.76c0,1.77,0.31,2.66,0.85,2.66c0.57,0,1.01-0.78,1.37-2.33
		c0.35-1.63,0.57-3.72,0.57-4.93c0-0.02-0.02-0.07-0.02-0.17c0-0.05-0.02-0.17-0.05-0.38v-0.17c0.12-0.21,0.38-0.28,0.8-0.28
		c0.28,0,0.73,0.33,0.73,0.64v0.02l-0.02,0.17c-0.17,0.05-0.61,2-0.61,5.09c0,1.44,0.14,2.1,0.66,2.1c0.19,0,0.14-0.4,0.38-0.4
		c0.12,0,0.21,0.09,0.21,0.24c0,0.33-0.28,0.59-0.75,0.59c-0.78,0-1.37-0.9-1.46-2.5C92.68,81.8,91.97,82.75,91.13,82.75z"/>
	<path d="M97,76.19c0-2.24,0.38-4.55,1.08-6.65c0.61-1.82,1.3-2.71,2.24-2.71c1.2,0,1.67,1.39,1.67,4.15c0,4.55-1.46,8.18-3.42,9.64
		c0.42,1.6,0.92,2.36,1.81,2.36c1.18,0,0.87-0.94,1.25-0.94c0.14,0,0.26,0.14,0.26,0.33c0,0.45-0.71,1.04-1.6,1.04
		c-1.13,0-1.96-0.8-2.57-2.43c-0.28,0.02-0.49,0.05-0.61,0.05c-0.8,0-1.18-0.38-1.18-0.68c0-0.14,0.12-0.24,0.24-0.24
		c0.28,0,0.26,0.47,0.94,0.47c0.12,0,0.26-0.02,0.47-0.05C97.18,79.12,97,77.7,97,76.19z M101.21,71.57c0-2.45-0.33-3.7-0.9-3.7
		c-0.68,0-2.15,3.72-2.15,9.15c0,1.25,0.07,2.29,0.28,3.18C99.94,79.16,101.21,75.96,101.21,71.57z"/>
	<path d="M105.81,83.41c-1.51,0-2.88-1.79-2.88-4.34c0-3.14,2.17-5.92,3.44-5.92h0.02c0.5,0.12,0.9,0.33,1.23,0.66
		c0.54,0.26,0.9,0.66,1.2,1.25l0.09-0.5c-0.02-0.07-0.02-0.12-0.02-0.17c0-0.21,0.17-0.33,0.54-0.33c0.59,0,1.06,0.42,1.06,0.78
		c0,0.12-0.05,0.19-0.17,0.31c-0.42,1.53-0.66,3.18-0.66,4.83c0,1.46,0.17,2.19,0.59,2.19c0.07,0,0.14-0.02,0.24-0.09
		c0.02-0.14,0.09-0.19,0.21-0.19c0.17,0,0.28,0.09,0.28,0.26c0,0.24-0.28,0.45-0.68,0.45c-0.83,0-1.51-0.71-1.7-2.03
		C107.84,82.46,106.97,83.41,105.81,83.41z M107.84,81c0.5-1.49,0.8-3.61,0.8-5c0-1.04-0.73-1.7-1.32-1.7c-1.3,0-2.92,2.55-2.92,5.7
		c0,1.89,0.66,2.97,1.63,2.97C106.78,82.98,107.39,82.32,107.84,81z"/>
</g>
</svg>
